<svg width="200" height="200" viewBox="0 0 1005 1004" fill="none" xmlns="http://www.w3.org/2000/svg">
<rect width="1005" height="1004" fill="#FFF"/>
<line x1="404" y1="100" x2="404" y2="1000" stroke="black" stroke-width="6"/>
<line x1="704" y1="100" x2="704" y2="1000" stroke="black" stroke-width="6"/>
<line x1="101" y1="397" x2="1001" y2="397" stroke="black" stroke-width="6"/>
<line x1="101" y1="697" x2="1001" y2="697" stroke="black" stroke-width="6"/>
<path d="M503.959 520.139V516.545H529.05V520.139H518.53V550H514.479V520.139H503.959ZM532.174 550V524.909H535.898V528.699H536.16C536.617 527.457 537.445 526.45 538.643 525.677C539.841 524.904 541.191 524.517 542.694 524.517C542.977 524.517 543.331 524.522 543.756 524.533C544.18 524.544 544.502 524.561 544.719 524.582V528.503C544.589 528.47 544.289 528.421 543.821 528.356C543.364 528.28 542.879 528.241 542.367 528.241C541.147 528.241 540.058 528.497 539.1 529.009C538.153 529.51 537.401 530.207 536.846 531.1C536.301 531.982 536.029 532.99 536.029 534.122V550H532.174ZM565.102 539.741V524.909H568.957V550H565.102V545.753H564.84C564.252 547.027 563.337 548.111 562.096 549.004C560.854 549.886 559.286 550.327 557.391 550.327C555.823 550.327 554.429 549.984 553.21 549.298C551.99 548.601 551.032 547.555 550.335 546.161C549.638 544.756 549.289 542.987 549.289 540.852V524.909H553.144V540.591C553.144 542.42 553.656 543.88 554.68 544.969C555.714 546.058 557.032 546.602 558.633 546.602C559.591 546.602 560.566 546.357 561.557 545.867C562.559 545.377 563.397 544.626 564.073 543.613C564.759 542.6 565.102 541.31 565.102 539.741ZM586.538 550.523C584.12 550.523 582.034 549.989 580.281 548.922C578.539 547.844 577.194 546.341 576.246 544.413C575.31 542.475 574.842 540.221 574.842 537.651C574.842 535.08 575.31 532.815 576.246 530.855C577.194 528.884 578.512 527.348 580.199 526.249C581.898 525.138 583.88 524.582 586.146 524.582C587.452 524.582 588.743 524.8 590.017 525.236C591.291 525.671 592.451 526.379 593.496 527.359C594.542 528.329 595.375 529.614 595.996 531.214C596.616 532.815 596.927 534.786 596.927 537.128V538.761H577.586V535.429H593.006C593.006 534.013 592.723 532.75 592.157 531.639C591.601 530.528 590.806 529.652 589.772 529.009C588.748 528.367 587.539 528.045 586.146 528.045C584.61 528.045 583.281 528.427 582.16 529.189C581.049 529.94 580.194 530.92 579.595 532.129C578.996 533.338 578.697 534.634 578.697 536.017V538.239C578.697 540.134 579.023 541.74 579.677 543.058C580.341 544.364 581.261 545.361 582.437 546.047C583.614 546.722 584.98 547.06 586.538 547.06C587.55 547.06 588.465 546.918 589.282 546.635C590.11 546.341 590.823 545.905 591.422 545.328C592.021 544.74 592.484 544.01 592.81 543.139L596.535 544.185C596.143 545.448 595.484 546.559 594.558 547.517C593.632 548.464 592.489 549.205 591.128 549.739C589.766 550.261 588.236 550.523 586.538 550.523ZM501.68 572.545V606H497.76L479.53 579.733H479.203V606H475.152V572.545H479.072L497.368 598.878H497.694V572.545H501.68ZM519.784 606.523C517.366 606.523 515.281 605.989 513.527 604.922C511.785 603.844 510.44 602.341 509.492 600.413C508.556 598.475 508.088 596.221 508.088 593.651C508.088 591.08 508.556 588.815 509.492 586.855C510.44 584.884 511.758 583.348 513.446 582.249C515.144 581.138 517.126 580.582 519.392 580.582C520.698 580.582 521.989 580.8 523.263 581.236C524.537 581.671 525.697 582.379 526.742 583.359C527.788 584.329 528.621 585.614 529.242 587.214C529.862 588.815 530.173 590.786 530.173 593.128V594.761H510.832V591.429H526.252C526.252 590.013 525.969 588.75 525.403 587.639C524.848 586.528 524.053 585.652 523.018 585.009C521.994 584.367 520.786 584.045 519.392 584.045C517.856 584.045 516.527 584.427 515.406 585.189C514.295 585.94 513.44 586.92 512.841 588.129C512.242 589.338 511.943 590.634 511.943 592.017V594.239C511.943 596.134 512.269 597.74 512.923 599.058C513.587 600.364 514.507 601.361 515.684 602.047C516.86 602.722 518.226 603.06 519.784 603.06C520.796 603.06 521.711 602.918 522.528 602.635C523.356 602.341 524.069 601.905 524.668 601.328C525.267 600.74 525.73 600.01 526.056 599.139L529.781 600.185C529.389 601.448 528.73 602.559 527.804 603.517C526.879 604.464 525.735 605.205 524.374 605.739C523.013 606.261 521.483 606.523 519.784 606.523ZM551.85 595.741V580.909H555.705V606H551.85V601.753H551.588C551 603.027 550.085 604.111 548.844 605.004C547.603 605.886 546.034 606.327 544.139 606.327C542.571 606.327 541.177 605.984 539.958 605.298C538.738 604.601 537.78 603.555 537.083 602.161C536.386 600.756 536.037 598.987 536.037 596.852V580.909H539.892V596.591C539.892 598.42 540.404 599.88 541.428 600.969C542.462 602.058 543.78 602.602 545.381 602.602C546.339 602.602 547.314 602.357 548.305 601.867C549.307 601.377 550.145 600.626 550.821 599.613C551.507 598.6 551.85 597.31 551.85 595.741ZM573.678 580.909V584.176H560.675V580.909H573.678ZM564.465 574.898H568.32V598.812C568.32 599.902 568.478 600.718 568.793 601.263C569.12 601.796 569.534 602.156 570.035 602.341C570.547 602.515 571.086 602.602 571.652 602.602C572.077 602.602 572.425 602.58 572.698 602.537C572.97 602.482 573.188 602.439 573.351 602.406L574.135 605.869C573.874 605.967 573.509 606.065 573.041 606.163C572.572 606.272 571.979 606.327 571.26 606.327C570.171 606.327 569.104 606.093 568.058 605.624C567.024 605.156 566.163 604.443 565.477 603.484C564.802 602.526 564.465 601.317 564.465 599.858V574.898ZM579.477 606V580.909H583.201V584.699H583.462C583.92 583.457 584.747 582.45 585.945 581.677C587.143 580.904 588.494 580.517 589.997 580.517C590.28 580.517 590.634 580.522 591.058 580.533C591.483 580.544 591.804 580.561 592.022 580.582V584.503C591.891 584.47 591.592 584.421 591.124 584.356C590.666 584.28 590.182 584.241 589.67 584.241C588.45 584.241 587.361 584.497 586.403 585.009C585.455 585.51 584.704 586.207 584.149 587.1C583.604 587.982 583.332 588.99 583.332 590.122V606H579.477ZM603.975 606.588C602.385 606.588 600.943 606.289 599.647 605.69C598.351 605.08 597.322 604.203 596.559 603.06C595.797 601.905 595.416 600.511 595.416 598.878C595.416 597.44 595.699 596.275 596.265 595.382C596.831 594.478 597.588 593.77 598.536 593.259C599.483 592.747 600.529 592.366 601.672 592.115C602.826 591.854 603.986 591.647 605.152 591.494C606.676 591.298 607.912 591.151 608.86 591.053C609.818 590.944 610.515 590.765 610.951 590.514C611.397 590.264 611.62 589.828 611.62 589.207V589.077C611.62 587.465 611.179 586.213 610.297 585.32C609.426 584.427 608.103 583.98 606.328 583.98C604.487 583.98 603.044 584.383 601.999 585.189C600.953 585.995 600.218 586.855 599.794 587.77L596.134 586.463C596.788 584.938 597.659 583.751 598.748 582.902C599.848 582.042 601.046 581.443 602.342 581.105C603.649 580.757 604.934 580.582 606.197 580.582C607.003 580.582 607.929 580.68 608.974 580.876C610.03 581.062 611.049 581.448 612.029 582.036C613.02 582.624 613.842 583.512 614.495 584.699C615.149 585.886 615.475 587.476 615.475 589.469V606H611.62V602.602H611.424C611.163 603.147 610.727 603.729 610.117 604.35C609.508 604.971 608.696 605.499 607.684 605.935C606.671 606.37 605.435 606.588 603.975 606.588ZM604.563 603.125C606.088 603.125 607.373 602.826 608.419 602.227C609.475 601.628 610.27 600.854 610.804 599.907C611.348 598.96 611.62 597.963 611.62 596.918V593.389C611.457 593.585 611.098 593.765 610.542 593.928C609.998 594.081 609.366 594.217 608.647 594.337C607.939 594.446 607.248 594.544 606.573 594.631C605.908 594.707 605.369 594.772 604.956 594.827C603.954 594.957 603.017 595.17 602.146 595.464C601.286 595.747 600.589 596.177 600.055 596.754C599.532 597.321 599.271 598.094 599.271 599.074C599.271 600.413 599.766 601.426 600.757 602.112C601.759 602.787 603.028 603.125 604.563 603.125ZM626.367 572.545V606H622.512V572.545H626.367Z" fill="purple"/>
<path d="M800.096 528H796.221C795.992 526.885 795.59 525.906 795.018 525.062C794.455 524.219 793.768 523.51 792.955 522.938C792.153 522.354 791.262 521.917 790.283 521.625C789.304 521.333 788.283 521.187 787.221 521.187C785.283 521.187 783.528 521.677 781.955 522.656C780.393 523.635 779.148 525.078 778.221 526.984C777.304 528.891 776.846 531.229 776.846 534C776.846 536.771 777.304 539.109 778.221 541.016C779.148 542.922 780.393 544.365 781.955 545.344C783.528 546.323 785.283 546.812 787.221 546.812C788.283 546.812 789.304 546.667 790.283 546.375C791.262 546.083 792.153 545.651 792.955 545.078C793.768 544.495 794.455 543.781 795.018 542.937C795.59 542.083 795.992 541.104 796.221 540H800.096C799.804 541.635 799.273 543.099 798.502 544.391C797.731 545.682 796.773 546.781 795.627 547.687C794.481 548.583 793.195 549.266 791.768 549.734C790.351 550.203 788.835 550.437 787.221 550.437C784.492 550.437 782.064 549.771 779.939 548.438C777.814 547.104 776.143 545.208 774.924 542.75C773.705 540.292 773.096 537.375 773.096 534C773.096 530.625 773.705 527.708 774.924 525.25C776.143 522.792 777.814 520.896 779.939 519.562C782.064 518.229 784.492 517.562 787.221 517.562C788.835 517.562 790.351 517.797 791.768 518.266C793.195 518.734 794.481 519.422 795.627 520.328C796.773 521.224 797.731 522.318 798.502 523.609C799.273 524.891 799.804 526.354 800.096 528ZM809.545 535.562V550H805.857V518H809.545V529.75H809.857C810.42 528.51 811.264 527.526 812.389 526.797C813.524 526.057 815.035 525.688 816.92 525.688C818.555 525.688 819.988 526.016 821.217 526.672C822.446 527.318 823.399 528.312 824.076 529.656C824.764 530.99 825.107 532.687 825.107 534.75V550H821.42V535C821.42 533.094 820.925 531.62 819.936 530.578C818.956 529.526 817.597 529 815.857 529C814.649 529 813.566 529.255 812.607 529.766C811.66 530.276 810.91 531.021 810.357 532C809.816 532.979 809.545 534.167 809.545 535.562ZM838.916 550.563C837.395 550.563 836.015 550.276 834.775 549.703C833.536 549.12 832.551 548.281 831.822 547.188C831.093 546.083 830.729 544.75 830.729 543.187C830.729 541.812 830.999 540.698 831.541 539.844C832.083 538.979 832.807 538.302 833.713 537.812C834.619 537.323 835.619 536.958 836.713 536.719C837.817 536.469 838.926 536.271 840.041 536.125C841.499 535.937 842.682 535.797 843.588 535.703C844.505 535.599 845.171 535.427 845.588 535.187C846.015 534.948 846.229 534.531 846.229 533.937V533.812C846.229 532.271 845.807 531.073 844.963 530.219C844.13 529.365 842.864 528.937 841.166 528.937C839.406 528.937 838.025 529.323 837.025 530.094C836.025 530.865 835.322 531.687 834.916 532.562L831.416 531.312C832.041 529.854 832.874 528.719 833.916 527.906C834.968 527.083 836.114 526.51 837.354 526.187C838.604 525.854 839.833 525.688 841.041 525.688C841.812 525.688 842.697 525.781 843.697 525.969C844.708 526.146 845.682 526.516 846.619 527.078C847.567 527.641 848.354 528.49 848.979 529.625C849.604 530.76 849.916 532.281 849.916 534.188V550H846.229V546.75H846.041C845.791 547.271 845.374 547.828 844.791 548.422C844.208 549.016 843.432 549.521 842.463 549.937C841.494 550.354 840.312 550.563 838.916 550.563ZM839.479 547.25C840.937 547.25 842.166 546.964 843.166 546.391C844.176 545.818 844.937 545.078 845.447 544.172C845.968 543.266 846.229 542.312 846.229 541.312V537.937C846.072 538.125 845.729 538.297 845.197 538.453C844.676 538.599 844.072 538.729 843.385 538.844C842.708 538.948 842.046 539.042 841.4 539.125C840.765 539.198 840.249 539.26 839.854 539.312C838.895 539.437 837.999 539.641 837.166 539.922C836.343 540.193 835.676 540.604 835.166 541.156C834.666 541.698 834.416 542.437 834.416 543.375C834.416 544.656 834.89 545.625 835.838 546.281C836.796 546.927 838.01 547.25 839.479 547.25ZM866.396 550.5C864.23 550.5 862.329 549.984 860.693 548.953C859.068 547.922 857.798 546.479 856.881 544.625C855.975 542.771 855.521 540.604 855.521 538.125C855.521 535.625 855.975 533.443 856.881 531.578C857.798 529.714 859.068 528.266 860.693 527.234C862.329 526.203 864.23 525.688 866.396 525.688C868.563 525.688 870.459 526.203 872.084 527.234C873.719 528.266 874.99 529.714 875.896 531.578C876.813 533.443 877.271 535.625 877.271 538.125C877.271 540.604 876.813 542.771 875.896 544.625C874.99 546.479 873.719 547.922 872.084 548.953C870.459 549.984 868.563 550.5 866.396 550.5ZM866.396 547.188C868.042 547.188 869.396 546.766 870.459 545.922C871.521 545.078 872.308 543.969 872.818 542.594C873.329 541.219 873.584 539.729 873.584 538.125C873.584 536.521 873.329 535.026 872.818 533.641C872.308 532.255 871.521 531.135 870.459 530.281C869.396 529.427 868.042 529 866.396 529C864.751 529 863.396 529.427 862.334 530.281C861.271 531.135 860.485 532.255 859.975 533.641C859.464 535.026 859.209 536.521 859.209 538.125C859.209 539.729 859.464 541.219 859.975 542.594C860.485 543.969 861.271 545.078 862.334 545.922C863.396 546.766 864.751 547.188 866.396 547.188ZM893.338 526V529.125H880.9V526H893.338ZM884.525 520.25H888.213V543.125C888.213 544.167 888.364 544.948 888.666 545.469C888.979 545.979 889.374 546.323 889.854 546.5C890.343 546.667 890.859 546.75 891.4 546.75C891.807 546.75 892.14 546.729 892.4 546.687C892.661 546.635 892.869 546.594 893.025 546.562L893.775 549.875C893.525 549.969 893.176 550.063 892.729 550.156C892.281 550.26 891.713 550.313 891.025 550.313C889.984 550.313 888.963 550.089 887.963 549.641C886.973 549.193 886.15 548.51 885.494 547.594C884.848 546.677 884.525 545.521 884.525 544.125V520.25ZM898.885 550V526H902.572V550H898.885ZM900.76 522C900.041 522 899.421 521.755 898.9 521.266C898.39 520.776 898.135 520.188 898.135 519.5C898.135 518.813 898.39 518.224 898.9 517.734C899.421 517.245 900.041 517 900.76 517C901.479 517 902.093 517.245 902.604 517.734C903.124 518.224 903.385 518.813 903.385 519.5C903.385 520.188 903.124 520.776 902.604 521.266C902.093 521.755 901.479 522 900.76 522ZM919.076 550.5C916.826 550.5 914.889 549.969 913.264 548.906C911.639 547.844 910.389 546.38 909.514 544.516C908.639 542.651 908.201 540.521 908.201 538.125C908.201 535.687 908.649 533.536 909.545 531.672C910.451 529.797 911.712 528.333 913.326 527.281C914.951 526.219 916.847 525.688 919.014 525.688C920.701 525.688 922.222 526 923.576 526.625C924.93 527.25 926.04 528.125 926.904 529.25C927.769 530.375 928.305 531.687 928.514 533.187H924.826C924.545 532.094 923.92 531.125 922.951 530.281C921.993 529.427 920.701 529 919.076 529C917.639 529 916.378 529.375 915.295 530.125C914.222 530.865 913.383 531.911 912.779 533.266C912.186 534.609 911.889 536.187 911.889 538C911.889 539.854 912.18 541.469 912.764 542.844C913.357 544.219 914.191 545.286 915.264 546.047C916.347 546.807 917.618 547.188 919.076 547.188C920.035 547.188 920.904 547.021 921.686 546.687C922.467 546.354 923.128 545.875 923.67 545.25C924.212 544.625 924.597 543.875 924.826 543H928.514C928.305 544.417 927.79 545.693 926.967 546.828C926.154 547.953 925.076 548.849 923.732 549.516C922.399 550.172 920.847 550.5 919.076 550.5ZM803.803 571V603H800.053L782.615 577.875H782.303V603H778.428V571H782.178L799.678 596.187H799.99V571H803.803ZM821.119 603.5C818.807 603.5 816.812 602.99 815.135 601.969C813.468 600.938 812.182 599.5 811.275 597.656C810.38 595.802 809.932 593.646 809.932 591.188C809.932 588.729 810.38 586.562 811.275 584.687C812.182 582.802 813.442 581.333 815.057 580.281C816.682 579.219 818.577 578.688 820.744 578.688C821.994 578.688 823.229 578.896 824.447 579.312C825.666 579.729 826.775 580.406 827.775 581.344C828.775 582.271 829.572 583.5 830.166 585.031C830.76 586.562 831.057 588.448 831.057 590.687V592.25H812.557V589.062H827.307C827.307 587.708 827.036 586.5 826.494 585.437C825.963 584.375 825.202 583.536 824.213 582.922C823.234 582.307 822.077 582 820.744 582C819.275 582 818.005 582.365 816.932 583.094C815.869 583.812 815.051 584.75 814.479 585.906C813.906 587.062 813.619 588.302 813.619 589.625V591.75C813.619 593.563 813.932 595.099 814.557 596.359C815.192 597.609 816.072 598.562 817.197 599.219C818.322 599.865 819.63 600.188 821.119 600.188C822.088 600.188 822.963 600.052 823.744 599.781C824.536 599.5 825.218 599.083 825.791 598.531C826.364 597.969 826.807 597.271 827.119 596.437L830.682 597.438C830.307 598.646 829.676 599.708 828.791 600.625C827.906 601.531 826.812 602.24 825.51 602.75C824.208 603.25 822.744 603.5 821.119 603.5ZM851.791 593.187V579H855.479V603H851.791V598.937H851.541C850.979 600.156 850.104 601.193 848.916 602.047C847.729 602.891 846.229 603.313 844.416 603.313C842.916 603.313 841.583 602.984 840.416 602.328C839.249 601.661 838.333 600.661 837.666 599.328C836.999 597.984 836.666 596.292 836.666 594.25V579H840.354V594C840.354 595.75 840.843 597.146 841.822 598.188C842.812 599.229 844.072 599.75 845.604 599.75C846.52 599.75 847.452 599.516 848.4 599.047C849.359 598.578 850.161 597.859 850.807 596.891C851.463 595.922 851.791 594.687 851.791 593.187ZM872.67 579V582.125H860.232V579H872.67ZM863.857 573.25H867.545V596.125C867.545 597.167 867.696 597.948 867.998 598.469C868.311 598.979 868.706 599.323 869.186 599.5C869.675 599.667 870.191 599.75 870.732 599.75C871.139 599.75 871.472 599.729 871.732 599.687C871.993 599.635 872.201 599.594 872.357 599.562L873.107 602.875C872.857 602.969 872.508 603.063 872.061 603.156C871.613 603.26 871.045 603.313 870.357 603.313C869.316 603.313 868.295 603.089 867.295 602.641C866.305 602.193 865.482 601.51 864.826 600.594C864.18 599.677 863.857 598.521 863.857 597.125V573.25ZM878.217 603V579H881.779V582.625H882.029C882.467 581.438 883.258 580.474 884.404 579.734C885.55 578.995 886.842 578.625 888.279 578.625C888.55 578.625 888.889 578.63 889.295 578.641C889.701 578.651 890.008 578.667 890.217 578.688V582.437C890.092 582.406 889.805 582.359 889.357 582.297C888.92 582.224 888.456 582.187 887.967 582.187C886.8 582.187 885.758 582.432 884.842 582.922C883.936 583.401 883.217 584.068 882.686 584.922C882.165 585.766 881.904 586.729 881.904 587.812V603H878.217ZM901.65 603.563C900.13 603.563 898.749 603.276 897.51 602.703C896.27 602.12 895.286 601.281 894.557 600.188C893.827 599.083 893.463 597.75 893.463 596.187C893.463 594.812 893.734 593.698 894.275 592.844C894.817 591.979 895.541 591.302 896.447 590.812C897.354 590.323 898.354 589.958 899.447 589.719C900.551 589.469 901.661 589.271 902.775 589.125C904.234 588.937 905.416 588.797 906.322 588.703C907.239 588.599 907.906 588.427 908.322 588.187C908.749 587.948 908.963 587.531 908.963 586.937V586.812C908.963 585.271 908.541 584.073 907.697 583.219C906.864 582.365 905.598 581.937 903.9 581.937C902.14 581.937 900.76 582.323 899.76 583.094C898.76 583.865 898.057 584.687 897.65 585.562L894.15 584.312C894.775 582.854 895.609 581.719 896.65 580.906C897.702 580.083 898.848 579.51 900.088 579.187C901.338 578.854 902.567 578.688 903.775 578.688C904.546 578.688 905.432 578.781 906.432 578.969C907.442 579.146 908.416 579.516 909.354 580.078C910.301 580.641 911.088 581.49 911.713 582.625C912.338 583.76 912.65 585.281 912.65 587.188V603H908.963V599.75H908.775C908.525 600.271 908.109 600.828 907.525 601.422C906.942 602.016 906.166 602.521 905.197 602.937C904.229 603.354 903.046 603.563 901.65 603.563ZM902.213 600.25C903.671 600.25 904.9 599.964 905.9 599.391C906.911 598.818 907.671 598.078 908.182 597.172C908.702 596.266 908.963 595.312 908.963 594.312V590.937C908.807 591.125 908.463 591.297 907.932 591.453C907.411 591.599 906.807 591.729 906.119 591.844C905.442 591.948 904.781 592.042 904.135 592.125C903.499 592.198 902.984 592.26 902.588 592.312C901.63 592.437 900.734 592.641 899.9 592.922C899.077 593.193 898.411 593.604 897.9 594.156C897.4 594.698 897.15 595.437 897.15 596.375C897.15 597.656 897.624 598.625 898.572 599.281C899.531 599.927 900.744 600.25 902.213 600.25ZM923.068 571V603H919.381V571H923.068Z" fill="purple"/>
<path d="M190.297 550V518H194.172V546.562H209.047V550H190.297ZM221.609 550.563C220.089 550.563 218.708 550.276 217.469 549.703C216.229 549.12 215.245 548.281 214.516 547.188C213.786 546.083 213.422 544.75 213.422 543.187C213.422 541.812 213.693 540.698 214.234 539.844C214.776 538.979 215.5 538.302 216.406 537.812C217.312 537.323 218.313 536.958 219.406 536.719C220.51 536.469 221.62 536.271 222.734 536.125C224.193 535.937 225.375 535.797 226.281 535.703C227.198 535.599 227.865 535.427 228.281 535.187C228.708 534.948 228.922 534.531 228.922 533.937V533.812C228.922 532.271 228.5 531.073 227.656 530.219C226.823 529.365 225.557 528.937 223.859 528.937C222.099 528.937 220.719 529.323 219.719 530.094C218.719 530.865 218.016 531.687 217.609 532.562L214.109 531.312C214.734 529.854 215.568 528.719 216.609 527.906C217.661 527.083 218.807 526.51 220.047 526.187C221.297 525.854 222.526 525.688 223.734 525.688C224.505 525.688 225.391 525.781 226.391 525.969C227.401 526.146 228.375 526.516 229.313 527.078C230.26 527.641 231.047 528.49 231.672 529.625C232.297 530.76 232.609 532.281 232.609 534.188V550H228.922V546.75H228.734C228.484 547.271 228.068 547.828 227.484 548.422C226.901 549.016 226.125 549.521 225.156 549.937C224.188 550.354 223.005 550.563 221.609 550.563ZM222.172 547.25C223.63 547.25 224.859 546.964 225.859 546.391C226.87 545.818 227.63 545.078 228.141 544.172C228.661 543.266 228.922 542.312 228.922 541.312V537.937C228.766 538.125 228.422 538.297 227.891 538.453C227.37 538.599 226.766 538.729 226.078 538.844C225.401 538.948 224.74 539.042 224.094 539.125C223.458 539.198 222.943 539.26 222.547 539.312C221.589 539.437 220.693 539.641 219.859 539.922C219.036 540.193 218.37 540.604 217.859 541.156C217.359 541.698 217.109 542.437 217.109 543.375C217.109 544.656 217.583 545.625 218.531 546.281C219.49 546.927 220.703 547.25 222.172 547.25ZM244.777 550L237.465 526H241.34L246.527 544.375H246.777L251.902 526H255.84L260.902 544.312H261.152L266.34 526H270.215L262.902 550H259.277L254.027 531.562H253.652L248.402 550H244.777ZM285.777 526V529.125H272.84V526H285.777ZM276.715 550V522.688C276.715 521.312 277.038 520.167 277.684 519.25C278.329 518.333 279.168 517.646 280.199 517.187C281.23 516.729 282.319 516.5 283.465 516.5C284.371 516.5 285.111 516.573 285.684 516.719C286.257 516.865 286.684 517 286.965 517.125L285.902 520.312C285.715 520.25 285.454 520.172 285.121 520.078C284.798 519.984 284.371 519.937 283.84 519.937C282.621 519.937 281.741 520.245 281.199 520.859C280.668 521.474 280.402 522.375 280.402 523.562V550H276.715ZM306.07 540.187V526H309.758V550H306.07V545.937H305.82C305.258 547.156 304.383 548.193 303.195 549.047C302.008 549.891 300.508 550.313 298.695 550.313C297.195 550.313 295.862 549.984 294.695 549.328C293.529 548.661 292.612 547.661 291.945 546.328C291.279 544.984 290.945 543.292 290.945 541.25V526H294.633V541C294.633 542.75 295.122 544.146 296.102 545.188C297.091 546.229 298.352 546.75 299.883 546.75C300.799 546.75 301.732 546.516 302.68 546.047C303.638 545.578 304.44 544.859 305.086 543.891C305.742 542.922 306.07 541.687 306.07 540.187ZM320.199 518V550H316.512V518H320.199ZM208.303 571V603H204.553L187.115 577.875H186.803V603H182.928V571H186.678L204.178 596.187H204.49V571H208.303ZM225.619 603.5C223.307 603.5 221.312 602.99 219.635 601.969C217.968 600.938 216.682 599.5 215.775 597.656C214.88 595.802 214.432 593.646 214.432 591.188C214.432 588.729 214.88 586.562 215.775 584.687C216.682 582.802 217.942 581.333 219.557 580.281C221.182 579.219 223.077 578.688 225.244 578.688C226.494 578.688 227.729 578.896 228.947 579.312C230.166 579.729 231.275 580.406 232.275 581.344C233.275 582.271 234.072 583.5 234.666 585.031C235.26 586.562 235.557 588.448 235.557 590.687V592.25H217.057V589.062H231.807C231.807 587.708 231.536 586.5 230.994 585.437C230.463 584.375 229.702 583.536 228.713 582.922C227.734 582.307 226.577 582 225.244 582C223.775 582 222.505 582.365 221.432 583.094C220.369 583.812 219.551 584.75 218.979 585.906C218.406 587.062 218.119 588.302 218.119 589.625V591.75C218.119 593.563 218.432 595.099 219.057 596.359C219.692 597.609 220.572 598.562 221.697 599.219C222.822 599.865 224.13 600.188 225.619 600.188C226.588 600.188 227.463 600.052 228.244 599.781C229.036 599.5 229.718 599.083 230.291 598.531C230.864 597.969 231.307 597.271 231.619 596.437L235.182 597.438C234.807 598.646 234.176 599.708 233.291 600.625C232.406 601.531 231.312 602.24 230.01 602.75C228.708 603.25 227.244 603.5 225.619 603.5ZM256.291 593.187V579H259.979V603H256.291V598.937H256.041C255.479 600.156 254.604 601.193 253.416 602.047C252.229 602.891 250.729 603.313 248.916 603.313C247.416 603.313 246.083 602.984 244.916 602.328C243.749 601.661 242.833 600.661 242.166 599.328C241.499 597.984 241.166 596.292 241.166 594.25V579H244.854V594C244.854 595.75 245.343 597.146 246.322 598.188C247.312 599.229 248.572 599.75 250.104 599.75C251.02 599.75 251.952 599.516 252.9 599.047C253.859 598.578 254.661 597.859 255.307 596.891C255.963 595.922 256.291 594.687 256.291 593.187ZM277.17 579V582.125H264.732V579H277.17ZM268.357 573.25H272.045V596.125C272.045 597.167 272.196 597.948 272.498 598.469C272.811 598.979 273.206 599.323 273.686 599.5C274.175 599.667 274.691 599.75 275.232 599.75C275.639 599.75 275.972 599.729 276.232 599.687C276.493 599.635 276.701 599.594 276.857 599.562L277.607 602.875C277.357 602.969 277.008 603.063 276.561 603.156C276.113 603.26 275.545 603.313 274.857 603.313C273.816 603.313 272.795 603.089 271.795 602.641C270.805 602.193 269.982 601.51 269.326 600.594C268.68 599.677 268.357 598.521 268.357 597.125V573.25ZM282.717 603V579H286.279V582.625H286.529C286.967 581.438 287.758 580.474 288.904 579.734C290.05 578.995 291.342 578.625 292.779 578.625C293.05 578.625 293.389 578.63 293.795 578.641C294.201 578.651 294.508 578.667 294.717 578.688V582.437C294.592 582.406 294.305 582.359 293.857 582.297C293.42 582.224 292.956 582.187 292.467 582.187C291.3 582.187 290.258 582.432 289.342 582.922C288.436 583.401 287.717 584.068 287.186 584.922C286.665 585.766 286.404 586.729 286.404 587.812V603H282.717ZM306.15 603.563C304.63 603.563 303.249 603.276 302.01 602.703C300.77 602.12 299.786 601.281 299.057 600.188C298.327 599.083 297.963 597.75 297.963 596.187C297.963 594.812 298.234 593.698 298.775 592.844C299.317 591.979 300.041 591.302 300.947 590.812C301.854 590.323 302.854 589.958 303.947 589.719C305.051 589.469 306.161 589.271 307.275 589.125C308.734 588.937 309.916 588.797 310.822 588.703C311.739 588.599 312.406 588.427 312.822 588.187C313.249 587.948 313.463 587.531 313.463 586.937V586.812C313.463 585.271 313.041 584.073 312.197 583.219C311.364 582.365 310.098 581.937 308.4 581.937C306.64 581.937 305.26 582.323 304.26 583.094C303.26 583.865 302.557 584.687 302.15 585.562L298.65 584.312C299.275 582.854 300.109 581.719 301.15 580.906C302.202 580.083 303.348 579.51 304.588 579.187C305.838 578.854 307.067 578.688 308.275 578.688C309.046 578.688 309.932 578.781 310.932 578.969C311.942 579.146 312.916 579.516 313.854 580.078C314.801 580.641 315.588 581.49 316.213 582.625C316.838 583.76 317.15 585.281 317.15 587.188V603H313.463V599.75H313.275C313.025 600.271 312.609 600.828 312.025 601.422C311.442 602.016 310.666 602.521 309.697 602.937C308.729 603.354 307.546 603.563 306.15 603.563ZM306.713 600.25C308.171 600.25 309.4 599.964 310.4 599.391C311.411 598.818 312.171 598.078 312.682 597.172C313.202 596.266 313.463 595.312 313.463 594.312V590.937C313.307 591.125 312.963 591.297 312.432 591.453C311.911 591.599 311.307 591.729 310.619 591.844C309.942 591.948 309.281 592.042 308.635 592.125C307.999 592.198 307.484 592.26 307.088 592.312C306.13 592.437 305.234 592.641 304.4 592.922C303.577 593.193 302.911 593.604 302.4 594.156C301.9 594.698 301.65 595.437 301.65 596.375C301.65 597.656 302.124 598.625 303.072 599.281C304.031 599.927 305.244 600.25 306.713 600.25ZM327.568 571V603H323.881V571H327.568Z" fill="purple"/>
<path d="M497.68 212.545V246H493.76L475.53 219.733H475.203V246H471.152V212.545H475.072L493.368 238.878H493.694V212.545H497.68ZM515.784 246.523C513.366 246.523 511.281 245.989 509.527 244.922C507.785 243.844 506.44 242.341 505.492 240.413C504.556 238.475 504.088 236.221 504.088 233.651C504.088 231.08 504.556 228.815 505.492 226.855C506.44 224.884 507.758 223.348 509.446 222.249C511.144 221.138 513.126 220.582 515.392 220.582C516.698 220.582 517.989 220.8 519.263 221.236C520.537 221.671 521.697 222.379 522.742 223.359C523.788 224.329 524.621 225.614 525.242 227.214C525.862 228.815 526.173 230.786 526.173 233.128V234.761H506.832V231.429H522.252C522.252 230.013 521.969 228.75 521.403 227.639C520.848 226.528 520.053 225.652 519.018 225.009C517.994 224.367 516.786 224.045 515.392 224.045C513.856 224.045 512.527 224.427 511.406 225.189C510.295 225.94 509.44 226.92 508.841 228.129C508.242 229.338 507.943 230.634 507.943 232.017V234.239C507.943 236.134 508.269 237.74 508.923 239.058C509.587 240.364 510.507 241.361 511.684 242.047C512.86 242.722 514.226 243.06 515.784 243.06C516.796 243.06 517.711 242.918 518.528 242.635C519.356 242.341 520.069 241.905 520.668 241.328C521.267 240.74 521.73 240.01 522.056 239.139L525.781 240.185C525.389 241.448 524.73 242.559 523.804 243.517C522.879 244.464 521.735 245.205 520.374 245.739C519.013 246.261 517.483 246.523 515.784 246.523ZM547.85 235.741V220.909H551.705V246H547.85V241.753H547.588C547 243.027 546.085 244.111 544.844 245.004C543.603 245.886 542.034 246.327 540.139 246.327C538.571 246.327 537.177 245.984 535.958 245.298C534.738 244.601 533.78 243.555 533.083 242.161C532.386 240.756 532.037 238.987 532.037 236.852V220.909H535.892V236.591C535.892 238.42 536.404 239.88 537.428 240.969C538.462 242.058 539.78 242.602 541.381 242.602C542.339 242.602 543.314 242.357 544.305 241.867C545.307 241.377 546.145 240.626 546.821 239.613C547.507 238.6 547.85 237.31 547.85 235.741ZM569.678 220.909V224.176H556.675V220.909H569.678ZM560.465 214.898H564.32V238.812C564.32 239.902 564.478 240.718 564.793 241.263C565.12 241.796 565.534 242.156 566.035 242.341C566.547 242.515 567.086 242.602 567.652 242.602C568.077 242.602 568.425 242.58 568.698 242.537C568.97 242.482 569.188 242.439 569.351 242.406L570.135 245.869C569.874 245.967 569.509 246.065 569.041 246.163C568.572 246.272 567.979 246.327 567.26 246.327C566.171 246.327 565.104 246.093 564.058 245.624C563.024 245.156 562.163 244.443 561.477 243.484C560.802 242.526 560.465 241.317 560.465 239.858V214.898ZM575.477 246V220.909H579.201V224.699H579.462C579.92 223.457 580.747 222.45 581.945 221.677C583.143 220.904 584.494 220.517 585.997 220.517C586.28 220.517 586.634 220.522 587.058 220.533C587.483 220.544 587.804 220.561 588.022 220.582V224.503C587.891 224.47 587.592 224.421 587.124 224.356C586.666 224.28 586.182 224.241 585.67 224.241C584.45 224.241 583.361 224.497 582.403 225.009C581.455 225.51 580.704 226.207 580.149 227.1C579.604 227.982 579.332 228.99 579.332 230.122V246H575.477ZM599.975 246.588C598.385 246.588 596.943 246.289 595.647 245.69C594.351 245.08 593.322 244.203 592.559 243.06C591.797 241.905 591.416 240.511 591.416 238.878C591.416 237.44 591.699 236.275 592.265 235.382C592.831 234.478 593.588 233.77 594.536 233.259C595.483 232.747 596.529 232.366 597.672 232.115C598.826 231.854 599.986 231.647 601.152 231.494C602.676 231.298 603.912 231.151 604.86 231.053C605.818 230.944 606.515 230.765 606.951 230.514C607.397 230.264 607.62 229.828 607.62 229.207V229.077C607.62 227.465 607.179 226.213 606.297 225.32C605.426 224.427 604.103 223.98 602.328 223.98C600.487 223.98 599.044 224.383 597.999 225.189C596.953 225.995 596.218 226.855 595.794 227.77L592.134 226.463C592.788 224.938 593.659 223.751 594.748 222.902C595.848 222.042 597.046 221.443 598.342 221.105C599.649 220.757 600.934 220.582 602.197 220.582C603.003 220.582 603.929 220.68 604.974 220.876C606.03 221.062 607.049 221.448 608.029 222.036C609.02 222.624 609.842 223.512 610.495 224.699C611.149 225.886 611.475 227.476 611.475 229.469V246H607.62V242.602H607.424C607.163 243.147 606.727 243.729 606.117 244.35C605.508 244.971 604.696 245.499 603.684 245.935C602.671 246.37 601.435 246.588 599.975 246.588ZM600.563 243.125C602.088 243.125 603.373 242.826 604.419 242.227C605.475 241.628 606.27 240.854 606.804 239.907C607.348 238.96 607.62 237.963 607.62 236.918V233.389C607.457 233.585 607.098 233.765 606.542 233.928C605.998 234.081 605.366 234.217 604.647 234.337C603.939 234.446 603.248 234.544 602.573 234.631C601.908 234.707 601.369 234.772 600.956 234.827C599.954 234.957 599.017 235.17 598.146 235.464C597.286 235.747 596.589 236.177 596.055 236.754C595.532 237.321 595.271 238.094 595.271 239.074C595.271 240.413 595.766 241.426 596.757 242.112C597.759 242.787 599.028 243.125 600.563 243.125ZM622.367 212.545V246H618.512V212.545H622.367ZM514.595 279C514.236 277.9 513.762 276.915 513.174 276.043C512.597 275.161 511.905 274.41 511.1 273.789C510.305 273.168 509.401 272.695 508.388 272.368C507.375 272.041 506.264 271.878 505.055 271.878C503.073 271.878 501.271 272.39 499.649 273.413C498.026 274.437 496.735 275.945 495.777 277.938C494.819 279.931 494.34 282.376 494.34 285.273C494.34 288.17 494.824 290.614 495.793 292.607C496.763 294.6 498.075 296.108 499.73 297.132C501.386 298.156 503.248 298.668 505.317 298.668C507.234 298.668 508.921 298.259 510.381 297.442C511.851 296.615 512.994 295.45 513.811 293.947C514.639 292.433 515.053 290.652 515.053 288.605L516.294 288.866H506.232V285.273H518.973V288.866C518.973 291.622 518.385 294.018 517.209 296.054C516.044 298.09 514.432 299.67 512.374 300.791C510.326 301.902 507.974 302.457 505.317 302.457C502.355 302.457 499.752 301.76 497.509 300.366C495.276 298.973 493.534 296.991 492.281 294.42C491.04 291.85 490.419 288.801 490.419 285.273C490.419 282.626 490.773 280.247 491.481 278.134C492.2 276.011 493.212 274.203 494.519 272.711C495.826 271.219 497.372 270.076 499.158 269.281C500.944 268.486 502.91 268.088 505.055 268.088C506.82 268.088 508.464 268.355 509.989 268.888C511.524 269.411 512.891 270.157 514.089 271.126C515.298 272.085 516.305 273.234 517.111 274.573C517.917 275.902 518.472 277.377 518.777 279H514.595ZM535.582 302.523C533.317 302.523 531.329 301.984 529.62 300.906C527.921 299.827 526.592 298.319 525.634 296.381C524.686 294.442 524.213 292.177 524.213 289.585C524.213 286.972 524.686 284.69 525.634 282.741C526.592 280.791 527.921 279.278 529.62 278.2C531.329 277.121 533.317 276.582 535.582 276.582C537.847 276.582 539.829 277.121 541.528 278.2C543.238 279.278 544.566 280.791 545.514 282.741C546.472 284.69 546.951 286.972 546.951 289.585C546.951 292.177 546.472 294.442 545.514 296.381C544.566 298.319 543.238 299.827 541.528 300.906C539.829 301.984 537.847 302.523 535.582 302.523ZM535.582 299.06C537.303 299.06 538.718 298.619 539.829 297.737C540.94 296.854 541.762 295.695 542.296 294.257C542.829 292.82 543.096 291.262 543.096 289.585C543.096 287.908 542.829 286.345 542.296 284.897C541.762 283.449 540.94 282.278 539.829 281.385C538.718 280.492 537.303 280.045 535.582 280.045C533.861 280.045 532.446 280.492 531.335 281.385C530.224 282.278 529.402 283.449 528.868 284.897C528.335 286.345 528.068 287.908 528.068 289.585C528.068 291.262 528.335 292.82 528.868 294.257C529.402 295.695 530.224 296.854 531.335 297.737C532.446 298.619 533.861 299.06 535.582 299.06ZM563.029 302.523C560.764 302.523 558.777 301.984 557.067 300.906C555.368 299.827 554.039 298.319 553.081 296.381C552.134 294.442 551.66 292.177 551.66 289.585C551.66 286.972 552.134 284.69 553.081 282.741C554.039 280.791 555.368 279.278 557.067 278.2C558.777 277.121 560.764 276.582 563.029 276.582C565.294 276.582 567.276 277.121 568.975 278.2C570.685 279.278 572.014 280.791 572.961 282.741C573.919 284.69 574.399 286.972 574.399 289.585C574.399 292.177 573.919 294.442 572.961 296.381C572.014 298.319 570.685 299.827 568.975 300.906C567.276 301.984 565.294 302.523 563.029 302.523ZM563.029 299.06C564.75 299.06 566.166 298.619 567.276 297.737C568.387 296.854 569.209 295.695 569.743 294.257C570.277 292.82 570.543 291.262 570.543 289.585C570.543 287.908 570.277 286.345 569.743 284.897C569.209 283.449 568.387 282.278 567.276 281.385C566.166 280.492 564.75 280.045 563.029 280.045C561.309 280.045 559.893 280.492 558.782 281.385C557.671 282.278 556.849 283.449 556.315 284.897C555.782 286.345 555.515 287.908 555.515 289.585C555.515 291.262 555.782 292.82 556.315 294.257C556.849 295.695 557.671 296.854 558.782 297.737C559.893 298.619 561.309 299.06 563.029 299.06ZM589.758 302.523C587.667 302.523 585.821 301.995 584.22 300.938C582.619 299.871 581.367 298.368 580.463 296.43C579.559 294.48 579.107 292.177 579.107 289.52C579.107 286.884 579.559 284.598 580.463 282.659C581.367 280.721 582.625 279.223 584.236 278.167C585.848 277.111 587.71 276.582 589.823 276.582C591.457 276.582 592.747 276.855 593.695 277.399C594.653 277.933 595.382 278.543 595.883 279.229C596.395 279.904 596.793 280.459 597.076 280.895H597.403V268.545H601.258V302H597.533V298.145H597.076C596.793 298.602 596.39 299.179 595.867 299.876C595.344 300.562 594.598 301.178 593.629 301.722C592.66 302.256 591.369 302.523 589.758 302.523ZM590.28 299.06C591.827 299.06 593.134 298.657 594.201 297.851C595.268 297.034 596.079 295.907 596.635 294.469C597.19 293.021 597.468 291.349 597.468 289.455C597.468 287.581 597.196 285.942 596.651 284.538C596.107 283.122 595.301 282.022 594.234 281.238C593.166 280.443 591.849 280.045 590.28 280.045C588.647 280.045 587.286 280.465 586.197 281.303C585.119 282.131 584.307 283.258 583.763 284.685C583.229 286.1 582.962 287.69 582.962 289.455C582.962 291.241 583.235 292.863 583.779 294.322C584.334 295.771 585.151 296.925 586.229 297.786C587.318 298.635 588.669 299.06 590.28 299.06Z" fill="purple"/>
<path d="M796.096 224H792.221C791.992 222.885 791.59 221.906 791.018 221.062C790.455 220.219 789.768 219.51 788.955 218.938C788.153 218.354 787.262 217.917 786.283 217.625C785.304 217.333 784.283 217.187 783.221 217.187C781.283 217.187 779.528 217.677 777.955 218.656C776.393 219.635 775.148 221.078 774.221 222.984C773.304 224.891 772.846 227.229 772.846 230C772.846 232.771 773.304 235.109 774.221 237.016C775.148 238.922 776.393 240.365 777.955 241.344C779.528 242.323 781.283 242.812 783.221 242.812C784.283 242.812 785.304 242.667 786.283 242.375C787.262 242.083 788.153 241.651 788.955 241.078C789.768 240.495 790.455 239.781 791.018 238.937C791.59 238.083 791.992 237.104 792.221 236H796.096C795.804 237.635 795.273 239.099 794.502 240.391C793.731 241.682 792.773 242.781 791.627 243.687C790.481 244.583 789.195 245.266 787.768 245.734C786.351 246.203 784.835 246.437 783.221 246.437C780.492 246.437 778.064 245.771 775.939 244.438C773.814 243.104 772.143 241.208 770.924 238.75C769.705 236.292 769.096 233.375 769.096 230C769.096 226.625 769.705 223.708 770.924 221.25C772.143 218.792 773.814 216.896 775.939 215.562C778.064 214.229 780.492 213.562 783.221 213.562C784.835 213.562 786.351 213.797 787.768 214.266C789.195 214.734 790.481 215.422 791.627 216.328C792.773 217.224 793.731 218.318 794.502 219.609C795.273 220.891 795.804 222.354 796.096 224ZM805.545 231.562V246H801.857V214H805.545V225.75H805.857C806.42 224.51 807.264 223.526 808.389 222.797C809.524 222.057 811.035 221.688 812.92 221.688C814.555 221.688 815.988 222.016 817.217 222.672C818.446 223.318 819.399 224.312 820.076 225.656C820.764 226.99 821.107 228.687 821.107 230.75V246H817.42V231C817.42 229.094 816.925 227.62 815.936 226.578C814.956 225.526 813.597 225 811.857 225C810.649 225 809.566 225.255 808.607 225.766C807.66 226.276 806.91 227.021 806.357 228C805.816 228.979 805.545 230.167 805.545 231.562ZM834.916 246.563C833.395 246.563 832.015 246.276 830.775 245.703C829.536 245.12 828.551 244.281 827.822 243.188C827.093 242.083 826.729 240.75 826.729 239.187C826.729 237.812 826.999 236.698 827.541 235.844C828.083 234.979 828.807 234.302 829.713 233.812C830.619 233.323 831.619 232.958 832.713 232.719C833.817 232.469 834.926 232.271 836.041 232.125C837.499 231.937 838.682 231.797 839.588 231.703C840.505 231.599 841.171 231.427 841.588 231.187C842.015 230.948 842.229 230.531 842.229 229.937V229.812C842.229 228.271 841.807 227.073 840.963 226.219C840.13 225.365 838.864 224.937 837.166 224.937C835.406 224.937 834.025 225.323 833.025 226.094C832.025 226.865 831.322 227.687 830.916 228.562L827.416 227.312C828.041 225.854 828.874 224.719 829.916 223.906C830.968 223.083 832.114 222.51 833.354 222.187C834.604 221.854 835.833 221.688 837.041 221.688C837.812 221.688 838.697 221.781 839.697 221.969C840.708 222.146 841.682 222.516 842.619 223.078C843.567 223.641 844.354 224.49 844.979 225.625C845.604 226.76 845.916 228.281 845.916 230.188V246H842.229V242.75H842.041C841.791 243.271 841.374 243.828 840.791 244.422C840.208 245.016 839.432 245.521 838.463 245.937C837.494 246.354 836.312 246.563 834.916 246.563ZM835.479 243.25C836.937 243.25 838.166 242.964 839.166 242.391C840.176 241.818 840.937 241.078 841.447 240.172C841.968 239.266 842.229 238.312 842.229 237.312V233.937C842.072 234.125 841.729 234.297 841.197 234.453C840.676 234.599 840.072 234.729 839.385 234.844C838.708 234.948 838.046 235.042 837.4 235.125C836.765 235.198 836.249 235.26 835.854 235.312C834.895 235.437 833.999 235.641 833.166 235.922C832.343 236.193 831.676 236.604 831.166 237.156C830.666 237.698 830.416 238.437 830.416 239.375C830.416 240.656 830.89 241.625 831.838 242.281C832.796 242.927 834.01 243.25 835.479 243.25ZM862.396 246.5C860.23 246.5 858.329 245.984 856.693 244.953C855.068 243.922 853.798 242.479 852.881 240.625C851.975 238.771 851.521 236.604 851.521 234.125C851.521 231.625 851.975 229.443 852.881 227.578C853.798 225.714 855.068 224.266 856.693 223.234C858.329 222.203 860.23 221.688 862.396 221.688C864.563 221.688 866.459 222.203 868.084 223.234C869.719 224.266 870.99 225.714 871.896 227.578C872.813 229.443 873.271 231.625 873.271 234.125C873.271 236.604 872.813 238.771 871.896 240.625C870.99 242.479 869.719 243.922 868.084 244.953C866.459 245.984 864.563 246.5 862.396 246.5ZM862.396 243.188C864.042 243.188 865.396 242.766 866.459 241.922C867.521 241.078 868.308 239.969 868.818 238.594C869.329 237.219 869.584 235.729 869.584 234.125C869.584 232.521 869.329 231.026 868.818 229.641C868.308 228.255 867.521 227.135 866.459 226.281C865.396 225.427 864.042 225 862.396 225C860.751 225 859.396 225.427 858.334 226.281C857.271 227.135 856.485 228.255 855.975 229.641C855.464 231.026 855.209 232.521 855.209 234.125C855.209 235.729 855.464 237.219 855.975 238.594C856.485 239.969 857.271 241.078 858.334 241.922C859.396 242.766 860.751 243.188 862.396 243.188ZM889.338 222V225.125H876.9V222H889.338ZM880.525 216.25H884.213V239.125C884.213 240.167 884.364 240.948 884.666 241.469C884.979 241.979 885.374 242.323 885.854 242.5C886.343 242.667 886.859 242.75 887.4 242.75C887.807 242.75 888.14 242.729 888.4 242.687C888.661 242.635 888.869 242.594 889.025 242.562L889.775 245.875C889.525 245.969 889.176 246.063 888.729 246.156C888.281 246.26 887.713 246.313 887.025 246.313C885.984 246.313 884.963 246.089 883.963 245.641C882.973 245.193 882.15 244.51 881.494 243.594C880.848 242.677 880.525 241.521 880.525 240.125V216.25ZM894.885 246V222H898.572V246H894.885ZM896.76 218C896.041 218 895.421 217.755 894.9 217.266C894.39 216.776 894.135 216.188 894.135 215.5C894.135 214.813 894.39 214.224 894.9 213.734C895.421 213.245 896.041 213 896.76 213C897.479 213 898.093 213.245 898.604 213.734C899.124 214.224 899.385 214.813 899.385 215.5C899.385 216.188 899.124 216.776 898.604 217.266C898.093 217.755 897.479 218 896.76 218ZM915.076 246.5C912.826 246.5 910.889 245.969 909.264 244.906C907.639 243.844 906.389 242.38 905.514 240.516C904.639 238.651 904.201 236.521 904.201 234.125C904.201 231.687 904.649 229.536 905.545 227.672C906.451 225.797 907.712 224.333 909.326 223.281C910.951 222.219 912.847 221.688 915.014 221.688C916.701 221.688 918.222 222 919.576 222.625C920.93 223.25 922.04 224.125 922.904 225.25C923.769 226.375 924.305 227.687 924.514 229.187H920.826C920.545 228.094 919.92 227.125 918.951 226.281C917.993 225.427 916.701 225 915.076 225C913.639 225 912.378 225.375 911.295 226.125C910.222 226.865 909.383 227.911 908.779 229.266C908.186 230.609 907.889 232.187 907.889 234C907.889 235.854 908.18 237.469 908.764 238.844C909.357 240.219 910.191 241.286 911.264 242.047C912.347 242.807 913.618 243.188 915.076 243.188C916.035 243.188 916.904 243.021 917.686 242.687C918.467 242.354 919.128 241.875 919.67 241.25C920.212 240.625 920.597 239.875 920.826 239H924.514C924.305 240.417 923.79 241.693 922.967 242.828C922.154 243.953 921.076 244.849 919.732 245.516C918.399 246.172 916.847 246.5 915.076 246.5ZM815.982 277C815.639 275.948 815.186 275.005 814.623 274.172C814.071 273.328 813.41 272.609 812.639 272.016C811.878 271.422 811.014 270.969 810.045 270.656C809.076 270.344 808.014 270.187 806.857 270.187C804.962 270.187 803.238 270.677 801.686 271.656C800.133 272.635 798.899 274.078 797.982 275.984C797.066 277.891 796.607 280.229 796.607 283C796.607 285.771 797.071 288.109 797.998 290.016C798.925 291.922 800.18 293.365 801.764 294.344C803.347 295.323 805.128 295.812 807.107 295.812C808.941 295.812 810.555 295.422 811.951 294.641C813.357 293.849 814.451 292.734 815.232 291.297C816.024 289.849 816.42 288.146 816.42 286.187L817.607 286.437H807.982V283H820.17V286.437C820.17 289.073 819.607 291.365 818.482 293.312C817.368 295.26 815.826 296.771 813.857 297.844C811.899 298.906 809.649 299.437 807.107 299.437C804.274 299.437 801.785 298.771 799.639 297.438C797.503 296.104 795.837 294.208 794.639 291.75C793.451 289.292 792.857 286.375 792.857 283C792.857 280.469 793.196 278.193 793.873 276.172C794.561 274.141 795.529 272.411 796.779 270.984C798.029 269.557 799.508 268.464 801.217 267.703C802.925 266.943 804.805 266.562 806.857 266.562C808.545 266.562 810.118 266.818 811.576 267.328C813.045 267.828 814.352 268.542 815.498 269.469C816.654 270.385 817.618 271.484 818.389 272.766C819.16 274.036 819.691 275.448 819.982 277H815.982ZM836.057 299.5C833.89 299.5 831.989 298.984 830.354 297.953C828.729 296.922 827.458 295.479 826.541 293.625C825.635 291.771 825.182 289.604 825.182 287.125C825.182 284.625 825.635 282.443 826.541 280.578C827.458 278.714 828.729 277.266 830.354 276.234C831.989 275.203 833.89 274.688 836.057 274.688C838.223 274.688 840.119 275.203 841.744 276.234C843.38 277.266 844.65 278.714 845.557 280.578C846.473 282.443 846.932 284.625 846.932 287.125C846.932 289.604 846.473 291.771 845.557 293.625C844.65 295.479 843.38 296.922 841.744 297.953C840.119 298.984 838.223 299.5 836.057 299.5ZM836.057 296.188C837.702 296.188 839.057 295.766 840.119 294.922C841.182 294.078 841.968 292.969 842.479 291.594C842.989 290.219 843.244 288.729 843.244 287.125C843.244 285.521 842.989 284.026 842.479 282.641C841.968 281.255 841.182 280.135 840.119 279.281C839.057 278.427 837.702 278 836.057 278C834.411 278 833.057 278.427 831.994 279.281C830.932 280.135 830.145 281.255 829.635 282.641C829.124 284.026 828.869 285.521 828.869 287.125C828.869 288.729 829.124 290.219 829.635 291.594C830.145 292.969 830.932 294.078 831.994 294.922C833.057 295.766 834.411 296.188 836.057 296.188ZM862.311 299.5C860.144 299.5 858.243 298.984 856.607 297.953C854.982 296.922 853.712 295.479 852.795 293.625C851.889 291.771 851.436 289.604 851.436 287.125C851.436 284.625 851.889 282.443 852.795 280.578C853.712 278.714 854.982 277.266 856.607 276.234C858.243 275.203 860.144 274.688 862.311 274.688C864.477 274.688 866.373 275.203 867.998 276.234C869.633 277.266 870.904 278.714 871.811 280.578C872.727 282.443 873.186 284.625 873.186 287.125C873.186 289.604 872.727 291.771 871.811 293.625C870.904 295.479 869.633 296.922 867.998 297.953C866.373 298.984 864.477 299.5 862.311 299.5ZM862.311 296.188C863.956 296.188 865.311 295.766 866.373 294.922C867.436 294.078 868.222 292.969 868.732 291.594C869.243 290.219 869.498 288.729 869.498 287.125C869.498 285.521 869.243 284.026 868.732 282.641C868.222 281.255 867.436 280.135 866.373 279.281C865.311 278.427 863.956 278 862.311 278C860.665 278 859.311 278.427 858.248 279.281C857.186 280.135 856.399 281.255 855.889 282.641C855.378 284.026 855.123 285.521 855.123 287.125C855.123 288.729 855.378 290.219 855.889 291.594C856.399 292.969 857.186 294.078 858.248 294.922C859.311 295.766 860.665 296.188 862.311 296.188ZM887.877 299.5C885.877 299.5 884.111 298.995 882.58 297.984C881.049 296.964 879.851 295.526 878.986 293.672C878.122 291.807 877.689 289.604 877.689 287.063C877.689 284.542 878.122 282.354 878.986 280.5C879.851 278.646 881.054 277.214 882.596 276.203C884.137 275.193 885.919 274.688 887.939 274.688C889.502 274.688 890.736 274.948 891.643 275.469C892.559 275.979 893.257 276.562 893.736 277.219C894.226 277.865 894.606 278.396 894.877 278.812H895.189V267H898.877V299H895.314V295.312H894.877C894.606 295.75 894.221 296.302 893.721 296.969C893.221 297.625 892.507 298.214 891.58 298.734C890.653 299.245 889.419 299.5 887.877 299.5ZM888.377 296.188C889.856 296.188 891.106 295.802 892.127 295.031C893.148 294.25 893.924 293.172 894.455 291.797C894.986 290.411 895.252 288.812 895.252 287C895.252 285.208 894.992 283.641 894.471 282.297C893.95 280.943 893.179 279.891 892.158 279.141C891.137 278.38 889.877 278 888.377 278C886.814 278 885.512 278.401 884.471 279.203C883.439 279.995 882.663 281.073 882.143 282.437C881.632 283.792 881.377 285.312 881.377 287C881.377 288.708 881.637 290.26 882.158 291.656C882.689 293.042 883.471 294.146 884.502 294.969C885.544 295.781 886.835 296.188 888.377 296.188Z" fill="purple"/>
<path d="M186.297 246V214H190.172V242.562H205.047V246H186.297ZM217.609 246.563C216.089 246.563 214.708 246.276 213.469 245.703C212.229 245.12 211.245 244.281 210.516 243.188C209.786 242.083 209.422 240.75 209.422 239.187C209.422 237.812 209.693 236.698 210.234 235.844C210.776 234.979 211.5 234.302 212.406 233.812C213.312 233.323 214.313 232.958 215.406 232.719C216.51 232.469 217.62 232.271 218.734 232.125C220.193 231.937 221.375 231.797 222.281 231.703C223.198 231.599 223.865 231.427 224.281 231.187C224.708 230.948 224.922 230.531 224.922 229.937V229.812C224.922 228.271 224.5 227.073 223.656 226.219C222.823 225.365 221.557 224.937 219.859 224.937C218.099 224.937 216.719 225.323 215.719 226.094C214.719 226.865 214.016 227.687 213.609 228.562L210.109 227.312C210.734 225.854 211.568 224.719 212.609 223.906C213.661 223.083 214.807 222.51 216.047 222.187C217.297 221.854 218.526 221.688 219.734 221.688C220.505 221.688 221.391 221.781 222.391 221.969C223.401 222.146 224.375 222.516 225.313 223.078C226.26 223.641 227.047 224.49 227.672 225.625C228.297 226.76 228.609 228.281 228.609 230.188V246H224.922V242.75H224.734C224.484 243.271 224.068 243.828 223.484 244.422C222.901 245.016 222.125 245.521 221.156 245.937C220.188 246.354 219.005 246.563 217.609 246.563ZM218.172 243.25C219.63 243.25 220.859 242.964 221.859 242.391C222.87 241.818 223.63 241.078 224.141 240.172C224.661 239.266 224.922 238.312 224.922 237.312V233.937C224.766 234.125 224.422 234.297 223.891 234.453C223.37 234.599 222.766 234.729 222.078 234.844C221.401 234.948 220.74 235.042 220.094 235.125C219.458 235.198 218.943 235.26 218.547 235.312C217.589 235.437 216.693 235.641 215.859 235.922C215.036 236.193 214.37 236.604 213.859 237.156C213.359 237.698 213.109 238.437 213.109 239.375C213.109 240.656 213.583 241.625 214.531 242.281C215.49 242.927 216.703 243.25 218.172 243.25ZM240.777 246L233.465 222H237.34L242.527 240.375H242.777L247.902 222H251.84L256.902 240.312H257.152L262.34 222H266.215L258.902 246H255.277L250.027 227.562H249.652L244.402 246H240.777ZM281.777 222V225.125H268.84V222H281.777ZM272.715 246V218.688C272.715 217.312 273.038 216.167 273.684 215.25C274.329 214.333 275.168 213.646 276.199 213.187C277.23 212.729 278.319 212.5 279.465 212.5C280.371 212.5 281.111 212.573 281.684 212.719C282.257 212.865 282.684 213 282.965 213.125L281.902 216.312C281.715 216.25 281.454 216.172 281.121 216.078C280.798 215.984 280.371 215.937 279.84 215.937C278.621 215.937 277.741 216.245 277.199 216.859C276.668 217.474 276.402 218.375 276.402 219.562V246H272.715ZM302.07 236.187V222H305.758V246H302.07V241.937H301.82C301.258 243.156 300.383 244.193 299.195 245.047C298.008 245.891 296.508 246.313 294.695 246.313C293.195 246.313 291.862 245.984 290.695 245.328C289.529 244.661 288.612 243.661 287.945 242.328C287.279 240.984 286.945 239.292 286.945 237.25V222H290.633V237C290.633 238.75 291.122 240.146 292.102 241.188C293.091 242.229 294.352 242.75 295.883 242.75C296.799 242.75 297.732 242.516 298.68 242.047C299.638 241.578 300.44 240.859 301.086 239.891C301.742 238.922 302.07 237.687 302.07 236.187ZM316.199 214V246H312.512V214H316.199ZM220.482 277C220.139 275.948 219.686 275.005 219.123 274.172C218.571 273.328 217.91 272.609 217.139 272.016C216.378 271.422 215.514 270.969 214.545 270.656C213.576 270.344 212.514 270.187 211.357 270.187C209.462 270.187 207.738 270.677 206.186 271.656C204.633 272.635 203.399 274.078 202.482 275.984C201.566 277.891 201.107 280.229 201.107 283C201.107 285.771 201.571 288.109 202.498 290.016C203.425 291.922 204.68 293.365 206.264 294.344C207.847 295.323 209.628 295.812 211.607 295.812C213.441 295.812 215.055 295.422 216.451 294.641C217.857 293.849 218.951 292.734 219.732 291.297C220.524 289.849 220.92 288.146 220.92 286.187L222.107 286.437H212.482V283H224.67V286.437C224.67 289.073 224.107 291.365 222.982 293.312C221.868 295.26 220.326 296.771 218.357 297.844C216.399 298.906 214.149 299.437 211.607 299.437C208.774 299.437 206.285 298.771 204.139 297.438C202.003 296.104 200.337 294.208 199.139 291.75C197.951 289.292 197.357 286.375 197.357 283C197.357 280.469 197.696 278.193 198.373 276.172C199.061 274.141 200.029 272.411 201.279 270.984C202.529 269.557 204.008 268.464 205.717 267.703C207.425 266.943 209.305 266.562 211.357 266.562C213.045 266.562 214.618 266.818 216.076 267.328C217.545 267.828 218.852 268.542 219.998 269.469C221.154 270.385 222.118 271.484 222.889 272.766C223.66 274.036 224.191 275.448 224.482 277H220.482ZM240.557 299.5C238.39 299.5 236.489 298.984 234.854 297.953C233.229 296.922 231.958 295.479 231.041 293.625C230.135 291.771 229.682 289.604 229.682 287.125C229.682 284.625 230.135 282.443 231.041 280.578C231.958 278.714 233.229 277.266 234.854 276.234C236.489 275.203 238.39 274.688 240.557 274.688C242.723 274.688 244.619 275.203 246.244 276.234C247.88 277.266 249.15 278.714 250.057 280.578C250.973 282.443 251.432 284.625 251.432 287.125C251.432 289.604 250.973 291.771 250.057 293.625C249.15 295.479 247.88 296.922 246.244 297.953C244.619 298.984 242.723 299.5 240.557 299.5ZM240.557 296.188C242.202 296.188 243.557 295.766 244.619 294.922C245.682 294.078 246.468 292.969 246.979 291.594C247.489 290.219 247.744 288.729 247.744 287.125C247.744 285.521 247.489 284.026 246.979 282.641C246.468 281.255 245.682 280.135 244.619 279.281C243.557 278.427 242.202 278 240.557 278C238.911 278 237.557 278.427 236.494 279.281C235.432 280.135 234.645 281.255 234.135 282.641C233.624 284.026 233.369 285.521 233.369 287.125C233.369 288.729 233.624 290.219 234.135 291.594C234.645 292.969 235.432 294.078 236.494 294.922C237.557 295.766 238.911 296.188 240.557 296.188ZM266.811 299.5C264.644 299.5 262.743 298.984 261.107 297.953C259.482 296.922 258.212 295.479 257.295 293.625C256.389 291.771 255.936 289.604 255.936 287.125C255.936 284.625 256.389 282.443 257.295 280.578C258.212 278.714 259.482 277.266 261.107 276.234C262.743 275.203 264.644 274.688 266.811 274.688C268.977 274.688 270.873 275.203 272.498 276.234C274.133 277.266 275.404 278.714 276.311 280.578C277.227 282.443 277.686 284.625 277.686 287.125C277.686 289.604 277.227 291.771 276.311 293.625C275.404 295.479 274.133 296.922 272.498 297.953C270.873 298.984 268.977 299.5 266.811 299.5ZM266.811 296.188C268.456 296.188 269.811 295.766 270.873 294.922C271.936 294.078 272.722 292.969 273.232 291.594C273.743 290.219 273.998 288.729 273.998 287.125C273.998 285.521 273.743 284.026 273.232 282.641C272.722 281.255 271.936 280.135 270.873 279.281C269.811 278.427 268.456 278 266.811 278C265.165 278 263.811 278.427 262.748 279.281C261.686 280.135 260.899 281.255 260.389 282.641C259.878 284.026 259.623 285.521 259.623 287.125C259.623 288.729 259.878 290.219 260.389 291.594C260.899 292.969 261.686 294.078 262.748 294.922C263.811 295.766 265.165 296.188 266.811 296.188ZM292.377 299.5C290.377 299.5 288.611 298.995 287.08 297.984C285.549 296.964 284.351 295.526 283.486 293.672C282.622 291.807 282.189 289.604 282.189 287.063C282.189 284.542 282.622 282.354 283.486 280.5C284.351 278.646 285.554 277.214 287.096 276.203C288.637 275.193 290.419 274.688 292.439 274.688C294.002 274.688 295.236 274.948 296.143 275.469C297.059 275.979 297.757 276.562 298.236 277.219C298.726 277.865 299.106 278.396 299.377 278.812H299.689V267H303.377V299H299.814V295.312H299.377C299.106 295.75 298.721 296.302 298.221 296.969C297.721 297.625 297.007 298.214 296.08 298.734C295.153 299.245 293.919 299.5 292.377 299.5ZM292.877 296.188C294.356 296.188 295.606 295.802 296.627 295.031C297.648 294.25 298.424 293.172 298.955 291.797C299.486 290.411 299.752 288.812 299.752 287C299.752 285.208 299.492 283.641 298.971 282.297C298.45 280.943 297.679 279.891 296.658 279.141C295.637 278.38 294.377 278 292.877 278C291.314 278 290.012 278.401 288.971 279.203C287.939 279.995 287.163 281.073 286.643 282.437C286.132 283.792 285.877 285.312 285.877 287C285.877 288.708 286.137 290.26 286.658 291.656C287.189 293.042 287.971 294.146 289.002 294.969C290.044 295.781 291.335 296.188 292.877 296.188Z" fill="purple"/>
<path d="M497.68 798.545V832H493.76L475.53 805.733H475.203V832H471.152V798.545H475.072L493.368 824.878H493.694V798.545H497.68ZM515.784 832.523C513.366 832.523 511.281 831.989 509.527 830.922C507.785 829.844 506.44 828.341 505.492 826.413C504.556 824.475 504.088 822.221 504.088 819.651C504.088 817.08 504.556 814.815 505.492 812.855C506.44 810.884 507.758 809.348 509.446 808.249C511.144 807.138 513.126 806.582 515.392 806.582C516.698 806.582 517.989 806.8 519.263 807.236C520.537 807.671 521.697 808.379 522.742 809.359C523.788 810.329 524.621 811.614 525.242 813.214C525.862 814.815 526.173 816.786 526.173 819.128V820.761H506.832V817.429H522.252C522.252 816.013 521.969 814.75 521.403 813.639C520.848 812.528 520.053 811.652 519.018 811.009C517.994 810.367 516.786 810.045 515.392 810.045C513.856 810.045 512.527 810.427 511.406 811.189C510.295 811.94 509.44 812.92 508.841 814.129C508.242 815.338 507.943 816.634 507.943 818.017V820.239C507.943 822.134 508.269 823.74 508.923 825.058C509.587 826.364 510.507 827.361 511.684 828.047C512.86 828.722 514.226 829.06 515.784 829.06C516.796 829.06 517.711 828.918 518.528 828.635C519.356 828.341 520.069 827.905 520.668 827.328C521.267 826.74 521.73 826.01 522.056 825.139L525.781 826.185C525.389 827.448 524.73 828.559 523.804 829.517C522.879 830.464 521.735 831.205 520.374 831.739C519.013 832.261 517.483 832.523 515.784 832.523ZM547.85 821.741V806.909H551.705V832H547.85V827.753H547.588C547 829.027 546.085 830.111 544.844 831.004C543.603 831.886 542.034 832.327 540.139 832.327C538.571 832.327 537.177 831.984 535.958 831.298C534.738 830.601 533.78 829.555 533.083 828.161C532.386 826.756 532.037 824.987 532.037 822.852V806.909H535.892V822.591C535.892 824.42 536.404 825.88 537.428 826.969C538.462 828.058 539.78 828.602 541.381 828.602C542.339 828.602 543.314 828.357 544.305 827.867C545.307 827.377 546.145 826.626 546.821 825.613C547.507 824.6 547.85 823.31 547.85 821.741ZM569.678 806.909V810.176H556.675V806.909H569.678ZM560.465 800.898H564.32V824.812C564.32 825.902 564.478 826.718 564.793 827.263C565.12 827.796 565.534 828.156 566.035 828.341C566.547 828.515 567.086 828.602 567.652 828.602C568.077 828.602 568.425 828.58 568.698 828.537C568.97 828.482 569.188 828.439 569.351 828.406L570.135 831.869C569.874 831.967 569.509 832.065 569.041 832.163C568.572 832.272 567.979 832.327 567.26 832.327C566.171 832.327 565.104 832.093 564.058 831.624C563.024 831.156 562.163 830.443 561.477 829.484C560.802 828.526 560.465 827.317 560.465 825.858V800.898ZM575.477 832V806.909H579.201V810.699H579.462C579.92 809.457 580.747 808.45 581.945 807.677C583.143 806.904 584.494 806.517 585.997 806.517C586.28 806.517 586.634 806.522 587.058 806.533C587.483 806.544 587.804 806.561 588.022 806.582V810.503C587.891 810.47 587.592 810.421 587.124 810.356C586.666 810.28 586.182 810.241 585.67 810.241C584.45 810.241 583.361 810.497 582.403 811.009C581.455 811.51 580.704 812.207 580.149 813.1C579.604 813.982 579.332 814.99 579.332 816.122V832H575.477ZM599.975 832.588C598.385 832.588 596.943 832.289 595.647 831.69C594.351 831.08 593.322 830.203 592.559 829.06C591.797 827.905 591.416 826.511 591.416 824.878C591.416 823.44 591.699 822.275 592.265 821.382C592.831 820.478 593.588 819.77 594.536 819.259C595.483 818.747 596.529 818.366 597.672 818.115C598.826 817.854 599.986 817.647 601.152 817.494C602.676 817.298 603.912 817.151 604.86 817.053C605.818 816.944 606.515 816.765 606.951 816.514C607.397 816.264 607.62 815.828 607.62 815.207V815.077C607.62 813.465 607.179 812.213 606.297 811.32C605.426 810.427 604.103 809.98 602.328 809.98C600.487 809.98 599.044 810.383 597.999 811.189C596.953 811.995 596.218 812.855 595.794 813.77L592.134 812.463C592.788 810.938 593.659 809.751 594.748 808.902C595.848 808.042 597.046 807.443 598.342 807.105C599.649 806.757 600.934 806.582 602.197 806.582C603.003 806.582 603.929 806.68 604.974 806.876C606.03 807.062 607.049 807.448 608.029 808.036C609.02 808.624 609.842 809.512 610.495 810.699C611.149 811.886 611.475 813.476 611.475 815.469V832H607.62V828.602H607.424C607.163 829.147 606.727 829.729 606.117 830.35C605.508 830.971 604.696 831.499 603.684 831.935C602.671 832.37 601.435 832.588 599.975 832.588ZM600.563 829.125C602.088 829.125 603.373 828.826 604.419 828.227C605.475 827.628 606.27 826.854 606.804 825.907C607.348 824.96 607.62 823.963 607.62 822.918V819.389C607.457 819.585 607.098 819.765 606.542 819.928C605.998 820.081 605.366 820.217 604.647 820.337C603.939 820.446 603.248 820.544 602.573 820.631C601.908 820.707 601.369 820.772 600.956 820.827C599.954 820.957 599.017 821.17 598.146 821.464C597.286 821.747 596.589 822.177 596.055 822.754C595.532 823.321 595.271 824.094 595.271 825.074C595.271 826.413 595.766 827.426 596.757 828.112C597.759 828.787 599.028 829.125 600.563 829.125ZM622.367 798.545V832H618.512V798.545H622.367ZM513.086 888V854.545H533.277V858.139H517.137V869.443H532.231V873.037H517.137V884.406H533.538V888H513.086ZM560.573 862.909L551.294 888H547.374L538.096 862.909H542.277L549.203 882.903H549.465L556.391 862.909H560.573ZM565.661 888V862.909H569.516V888H565.661ZM567.621 858.727C566.87 858.727 566.222 858.471 565.678 857.96C565.144 857.448 564.877 856.832 564.877 856.114C564.877 855.395 565.144 854.78 565.678 854.268C566.222 853.756 566.87 853.5 567.621 853.5C568.373 853.5 569.015 853.756 569.549 854.268C570.094 854.78 570.366 855.395 570.366 856.114C570.366 856.832 570.094 857.448 569.549 857.96C569.015 858.471 568.373 858.727 567.621 858.727ZM580.432 854.545V888H576.577V854.545H580.432Z" fill="black"/>
<path d="M796.096 810H792.221C791.992 808.885 791.59 807.906 791.018 807.062C790.455 806.219 789.768 805.51 788.955 804.938C788.153 804.354 787.262 803.917 786.283 803.625C785.304 803.333 784.283 803.187 783.221 803.187C781.283 803.187 779.528 803.677 777.955 804.656C776.393 805.635 775.148 807.078 774.221 808.984C773.304 810.891 772.846 813.229 772.846 816C772.846 818.771 773.304 821.109 774.221 823.016C775.148 824.922 776.393 826.365 777.955 827.344C779.528 828.323 781.283 828.812 783.221 828.812C784.283 828.812 785.304 828.667 786.283 828.375C787.262 828.083 788.153 827.651 788.955 827.078C789.768 826.495 790.455 825.781 791.018 824.937C791.59 824.083 791.992 823.104 792.221 822H796.096C795.804 823.635 795.273 825.099 794.502 826.391C793.731 827.682 792.773 828.781 791.627 829.687C790.481 830.583 789.195 831.266 787.768 831.734C786.351 832.203 784.835 832.437 783.221 832.437C780.492 832.437 778.064 831.771 775.939 830.438C773.814 829.104 772.143 827.208 770.924 824.75C769.705 822.292 769.096 819.375 769.096 816C769.096 812.625 769.705 809.708 770.924 807.25C772.143 804.792 773.814 802.896 775.939 801.562C778.064 800.229 780.492 799.562 783.221 799.562C784.835 799.562 786.351 799.797 787.768 800.266C789.195 800.734 790.481 801.422 791.627 802.328C792.773 803.224 793.731 804.318 794.502 805.609C795.273 806.891 795.804 808.354 796.096 810ZM805.545 817.562V832H801.857V800H805.545V811.75H805.857C806.42 810.51 807.264 809.526 808.389 808.797C809.524 808.057 811.035 807.688 812.92 807.688C814.555 807.688 815.988 808.016 817.217 808.672C818.446 809.318 819.399 810.312 820.076 811.656C820.764 812.99 821.107 814.687 821.107 816.75V832H817.42V817C817.42 815.094 816.925 813.62 815.936 812.578C814.956 811.526 813.597 811 811.857 811C810.649 811 809.566 811.255 808.607 811.766C807.66 812.276 806.91 813.021 806.357 814C805.816 814.979 805.545 816.167 805.545 817.562ZM834.916 832.563C833.395 832.563 832.015 832.276 830.775 831.703C829.536 831.12 828.551 830.281 827.822 829.188C827.093 828.083 826.729 826.75 826.729 825.187C826.729 823.812 826.999 822.698 827.541 821.844C828.083 820.979 828.807 820.302 829.713 819.812C830.619 819.323 831.619 818.958 832.713 818.719C833.817 818.469 834.926 818.271 836.041 818.125C837.499 817.937 838.682 817.797 839.588 817.703C840.505 817.599 841.171 817.427 841.588 817.187C842.015 816.948 842.229 816.531 842.229 815.937V815.812C842.229 814.271 841.807 813.073 840.963 812.219C840.13 811.365 838.864 810.937 837.166 810.937C835.406 810.937 834.025 811.323 833.025 812.094C832.025 812.865 831.322 813.687 830.916 814.562L827.416 813.312C828.041 811.854 828.874 810.719 829.916 809.906C830.968 809.083 832.114 808.51 833.354 808.187C834.604 807.854 835.833 807.688 837.041 807.688C837.812 807.688 838.697 807.781 839.697 807.969C840.708 808.146 841.682 808.516 842.619 809.078C843.567 809.641 844.354 810.49 844.979 811.625C845.604 812.76 845.916 814.281 845.916 816.188V832H842.229V828.75H842.041C841.791 829.271 841.374 829.828 840.791 830.422C840.208 831.016 839.432 831.521 838.463 831.937C837.494 832.354 836.312 832.563 834.916 832.563ZM835.479 829.25C836.937 829.25 838.166 828.964 839.166 828.391C840.176 827.818 840.937 827.078 841.447 826.172C841.968 825.266 842.229 824.312 842.229 823.312V819.937C842.072 820.125 841.729 820.297 841.197 820.453C840.676 820.599 840.072 820.729 839.385 820.844C838.708 820.948 838.046 821.042 837.4 821.125C836.765 821.198 836.249 821.26 835.854 821.312C834.895 821.437 833.999 821.641 833.166 821.922C832.343 822.193 831.676 822.604 831.166 823.156C830.666 823.698 830.416 824.437 830.416 825.375C830.416 826.656 830.89 827.625 831.838 828.281C832.796 828.927 834.01 829.25 835.479 829.25ZM862.396 832.5C860.23 832.5 858.329 831.984 856.693 830.953C855.068 829.922 853.798 828.479 852.881 826.625C851.975 824.771 851.521 822.604 851.521 820.125C851.521 817.625 851.975 815.443 852.881 813.578C853.798 811.714 855.068 810.266 856.693 809.234C858.329 808.203 860.23 807.688 862.396 807.688C864.563 807.688 866.459 808.203 868.084 809.234C869.719 810.266 870.99 811.714 871.896 813.578C872.813 815.443 873.271 817.625 873.271 820.125C873.271 822.604 872.813 824.771 871.896 826.625C870.99 828.479 869.719 829.922 868.084 830.953C866.459 831.984 864.563 832.5 862.396 832.5ZM862.396 829.188C864.042 829.188 865.396 828.766 866.459 827.922C867.521 827.078 868.308 825.969 868.818 824.594C869.329 823.219 869.584 821.729 869.584 820.125C869.584 818.521 869.329 817.026 868.818 815.641C868.308 814.255 867.521 813.135 866.459 812.281C865.396 811.427 864.042 811 862.396 811C860.751 811 859.396 811.427 858.334 812.281C857.271 813.135 856.485 814.255 855.975 815.641C855.464 817.026 855.209 818.521 855.209 820.125C855.209 821.729 855.464 823.219 855.975 824.594C856.485 825.969 857.271 827.078 858.334 827.922C859.396 828.766 860.751 829.188 862.396 829.188ZM889.338 808V811.125H876.9V808H889.338ZM880.525 802.25H884.213V825.125C884.213 826.167 884.364 826.948 884.666 827.469C884.979 827.979 885.374 828.323 885.854 828.5C886.343 828.667 886.859 828.75 887.4 828.75C887.807 828.75 888.14 828.729 888.4 828.687C888.661 828.635 888.869 828.594 889.025 828.562L889.775 831.875C889.525 831.969 889.176 832.063 888.729 832.156C888.281 832.26 887.713 832.313 887.025 832.313C885.984 832.313 884.963 832.089 883.963 831.641C882.973 831.193 882.15 830.51 881.494 829.594C880.848 828.677 880.525 827.521 880.525 826.125V802.25ZM894.885 832V808H898.572V832H894.885ZM896.76 804C896.041 804 895.421 803.755 894.9 803.266C894.39 802.776 894.135 802.188 894.135 801.5C894.135 800.813 894.39 800.224 894.9 799.734C895.421 799.245 896.041 799 896.76 799C897.479 799 898.093 799.245 898.604 799.734C899.124 800.224 899.385 800.813 899.385 801.5C899.385 802.188 899.124 802.776 898.604 803.266C898.093 803.755 897.479 804 896.76 804ZM915.076 832.5C912.826 832.5 910.889 831.969 909.264 830.906C907.639 829.844 906.389 828.38 905.514 826.516C904.639 824.651 904.201 822.521 904.201 820.125C904.201 817.687 904.649 815.536 905.545 813.672C906.451 811.797 907.712 810.333 909.326 809.281C910.951 808.219 912.847 807.688 915.014 807.688C916.701 807.688 918.222 808 919.576 808.625C920.93 809.25 922.04 810.125 922.904 811.25C923.769 812.375 924.305 813.687 924.514 815.187H920.826C920.545 814.094 919.92 813.125 918.951 812.281C917.993 811.427 916.701 811 915.076 811C913.639 811 912.378 811.375 911.295 812.125C910.222 812.865 909.383 813.911 908.779 815.266C908.186 816.609 907.889 818.187 907.889 820C907.889 821.854 908.18 823.469 908.764 824.844C909.357 826.219 910.191 827.286 911.264 828.047C912.347 828.807 913.618 829.188 915.076 829.188C916.035 829.188 916.904 829.021 917.686 828.687C918.467 828.354 919.128 827.875 919.67 827.25C920.212 826.625 920.597 825.875 920.826 825H924.514C924.305 826.417 923.79 827.693 922.967 828.828C922.154 829.953 921.076 830.849 919.732 831.516C918.399 832.172 916.847 832.5 915.076 832.5ZM814.539 885V853H833.852V856.437H818.414V867.25H832.852V870.687H818.414V881.562H834.102V885H814.539ZM859.961 861L851.086 885H847.336L838.461 861H842.461L849.086 880.125H849.336L855.961 861H859.961ZM864.828 885V861H868.516V885H864.828ZM866.703 857C865.984 857 865.365 856.755 864.844 856.266C864.333 855.776 864.078 855.188 864.078 854.5C864.078 853.813 864.333 853.224 864.844 852.734C865.365 852.245 865.984 852 866.703 852C867.422 852 868.036 852.245 868.547 852.734C869.068 853.224 869.328 853.813 869.328 854.5C869.328 855.188 869.068 855.776 868.547 856.266C868.036 856.755 867.422 857 866.703 857ZM878.957 853V885H875.27V853H878.957Z" fill="black"/>
<path d="M186.297 832V800H190.172V828.562H205.047V832H186.297ZM217.609 832.563C216.089 832.563 214.708 832.276 213.469 831.703C212.229 831.12 211.245 830.281 210.516 829.188C209.786 828.083 209.422 826.75 209.422 825.187C209.422 823.812 209.693 822.698 210.234 821.844C210.776 820.979 211.5 820.302 212.406 819.812C213.312 819.323 214.313 818.958 215.406 818.719C216.51 818.469 217.62 818.271 218.734 818.125C220.193 817.937 221.375 817.797 222.281 817.703C223.198 817.599 223.865 817.427 224.281 817.187C224.708 816.948 224.922 816.531 224.922 815.937V815.812C224.922 814.271 224.5 813.073 223.656 812.219C222.823 811.365 221.557 810.937 219.859 810.937C218.099 810.937 216.719 811.323 215.719 812.094C214.719 812.865 214.016 813.687 213.609 814.562L210.109 813.312C210.734 811.854 211.568 810.719 212.609 809.906C213.661 809.083 214.807 808.51 216.047 808.187C217.297 807.854 218.526 807.688 219.734 807.688C220.505 807.688 221.391 807.781 222.391 807.969C223.401 808.146 224.375 808.516 225.313 809.078C226.26 809.641 227.047 810.49 227.672 811.625C228.297 812.76 228.609 814.281 228.609 816.188V832H224.922V828.75H224.734C224.484 829.271 224.068 829.828 223.484 830.422C222.901 831.016 222.125 831.521 221.156 831.937C220.188 832.354 219.005 832.563 217.609 832.563ZM218.172 829.25C219.63 829.25 220.859 828.964 221.859 828.391C222.87 827.818 223.63 827.078 224.141 826.172C224.661 825.266 224.922 824.312 224.922 823.312V819.937C224.766 820.125 224.422 820.297 223.891 820.453C223.37 820.599 222.766 820.729 222.078 820.844C221.401 820.948 220.74 821.042 220.094 821.125C219.458 821.198 218.943 821.26 218.547 821.312C217.589 821.437 216.693 821.641 215.859 821.922C215.036 822.193 214.37 822.604 213.859 823.156C213.359 823.698 213.109 824.437 213.109 825.375C213.109 826.656 213.583 827.625 214.531 828.281C215.49 828.927 216.703 829.25 218.172 829.25ZM240.777 832L233.465 808H237.34L242.527 826.375H242.777L247.902 808H251.84L256.902 826.312H257.152L262.34 808H266.215L258.902 832H255.277L250.027 813.562H249.652L244.402 832H240.777ZM281.777 808V811.125H268.84V808H281.777ZM272.715 832V804.688C272.715 803.312 273.038 802.167 273.684 801.25C274.329 800.333 275.168 799.646 276.199 799.187C277.23 798.729 278.319 798.5 279.465 798.5C280.371 798.5 281.111 798.573 281.684 798.719C282.257 798.865 282.684 799 282.965 799.125L281.902 802.312C281.715 802.25 281.454 802.172 281.121 802.078C280.798 801.984 280.371 801.937 279.84 801.937C278.621 801.937 277.741 802.245 277.199 802.859C276.668 803.474 276.402 804.375 276.402 805.562V832H272.715ZM302.07 822.187V808H305.758V832H302.07V827.937H301.82C301.258 829.156 300.383 830.193 299.195 831.047C298.008 831.891 296.508 832.313 294.695 832.313C293.195 832.313 291.862 831.984 290.695 831.328C289.529 830.661 288.612 829.661 287.945 828.328C287.279 826.984 286.945 825.292 286.945 823.25V808H290.633V823C290.633 824.75 291.122 826.146 292.102 827.188C293.091 828.229 294.352 828.75 295.883 828.75C296.799 828.75 297.732 828.516 298.68 828.047C299.638 827.578 300.44 826.859 301.086 825.891C301.742 824.922 302.07 823.687 302.07 822.187ZM316.199 800V832H312.512V800H316.199ZM219.039 885V853H238.352V856.437H222.914V867.25H237.352V870.687H222.914V881.562H238.602V885H219.039ZM264.461 861L255.586 885H251.836L242.961 861H246.961L253.586 880.125H253.836L260.461 861H264.461ZM269.328 885V861H273.016V885H269.328ZM271.203 857C270.484 857 269.865 856.755 269.344 856.266C268.833 855.776 268.578 855.188 268.578 854.5C268.578 853.813 268.833 853.224 269.344 852.734C269.865 852.245 270.484 852 271.203 852C271.922 852 272.536 852.245 273.047 852.734C273.568 853.224 273.828 853.813 273.828 854.5C273.828 855.188 273.568 855.776 273.047 856.266C272.536 856.755 271.922 857 271.203 857ZM283.457 853V885H279.77V853H283.457Z" fill="black"/>
<path d="M53.8284 97.1716C52.2663 95.6095 49.7337 95.6095 48.1716 97.1716L22.7157 122.627C21.1536 124.19 21.1536 126.722 22.7157 128.284C24.2778 129.846 26.8105 129.846 28.3726 128.284L51 105.657L73.6274 128.284C75.1895 129.846 77.7222 129.846 79.2843 128.284C80.8464 126.722 80.8464 124.19 79.2843 122.627L53.8284 97.1716ZM48.1716 1002.83C49.7337 1004.39 52.2663 1004.39 53.8284 1002.83L79.2843 977.373C80.8464 975.81 80.8464 973.278 79.2843 971.716C77.7222 970.154 75.1895 970.154 73.6274 971.716L51 994.343L28.3726 971.716C26.8105 970.154 24.2778 970.154 22.7157 971.716C21.1536 973.278 21.1536 975.81 22.7157 977.373L48.1716 1002.83ZM51 100H47L47 1000H51H55L55 100H51Z" fill="url(#paint0_linear_0_1)"/>
<path d="M98.1716 47.1716C96.6095 48.7337 96.6095 51.2663 98.1716 52.8284L123.627 78.2843C125.19 79.8464 127.722 79.8464 129.284 78.2843C130.846 76.7222 130.846 74.1895 129.284 72.6274L106.657 50L129.284 27.3726C130.846 25.8105 130.846 23.2778 129.284 21.7157C127.722 20.1536 125.19 20.1536 123.627 21.7157L98.1716 47.1716ZM1003.83 52.8284C1005.39 51.2663 1005.39 48.7337 1003.83 47.1716L978.373 21.7157C976.81 20.1536 974.278 20.1536 972.716 21.7157C971.154 23.2778 971.154 25.8105 972.716 27.3726L995.343 50L972.716 72.6274C971.154 74.1895 971.154 76.7222 972.716 78.2843C974.278 79.8464 976.81 79.8464 978.373 78.2843L1003.83 52.8284ZM101 50V54L1001 54V50V46L101 46V50Z" fill="url(#paint1_linear_0_1)"/>
<path d="M353.215 33V0.999999H359.98V27.4219H373.699V33H353.215ZM384.898 33.4531C383.367 33.4531 382.003 33.1875 380.805 32.6562C379.607 32.1146 378.659 31.3177 377.961 30.2656C377.273 29.2031 376.93 27.8802 376.93 26.2969C376.93 24.9635 377.174 23.8437 377.664 22.9375C378.154 22.0313 378.82 21.3021 379.664 20.75C380.508 20.1979 381.466 19.7812 382.539 19.5C383.622 19.2187 384.758 19.0208 385.945 18.9062C387.341 18.7604 388.466 18.625 389.32 18.5C390.174 18.3646 390.794 18.1667 391.18 17.9062C391.565 17.6458 391.758 17.2604 391.758 16.75V16.6562C391.758 15.6667 391.445 14.901 390.82 14.3594C390.206 13.8177 389.331 13.5469 388.195 13.5469C386.997 13.5469 386.044 13.8125 385.336 14.3437C384.628 14.8646 384.159 15.5208 383.93 16.3125L377.773 15.8125C378.086 14.3542 378.701 13.0937 379.617 12.0312C380.534 10.9583 381.716 10.1354 383.164 9.5625C384.622 8.97917 386.31 8.6875 388.227 8.6875C389.56 8.6875 390.836 8.84375 392.055 9.15625C393.284 9.46875 394.372 9.95312 395.32 10.6094C396.279 11.2656 397.034 12.1094 397.586 13.1406C398.138 14.1615 398.414 15.3854 398.414 16.8125V33H392.102V29.6719H391.914C391.529 30.4219 391.013 31.0833 390.367 31.6562C389.721 32.2187 388.945 32.6615 388.039 32.9844C387.133 33.2969 386.086 33.4531 384.898 33.4531ZM386.805 28.8594C387.784 28.8594 388.648 28.6667 389.398 28.2812C390.148 27.8854 390.737 27.3542 391.164 26.6875C391.591 26.0208 391.805 25.2656 391.805 24.4219V21.875C391.596 22.0104 391.31 22.1354 390.945 22.25C390.591 22.3542 390.19 22.4531 389.742 22.5469C389.294 22.6302 388.846 22.7083 388.398 22.7812C387.951 22.8437 387.544 22.901 387.18 22.9531C386.398 23.0677 385.716 23.25 385.133 23.5C384.549 23.75 384.096 24.0885 383.773 24.5156C383.451 24.9323 383.289 25.4531 383.289 26.0781C383.289 26.9844 383.617 27.6771 384.273 28.1562C384.94 28.625 385.784 28.8594 386.805 28.8594ZM408.312 33L401.781 9H408.516L412.234 25.125H412.453L416.328 9H422.938L426.875 25.0313H427.078L430.734 9H437.453L430.938 33H423.891L419.766 17.9062H419.469L415.344 33H408.312ZM473.563 9L465.172 33H457.672L449.281 9H456.313L461.297 26.1719H461.547L466.516 9H473.563ZM487.133 33.4688C484.664 33.4688 482.539 32.9688 480.758 31.9688C478.987 30.9583 477.622 29.5312 476.664 27.6875C475.706 25.8333 475.227 23.6406 475.227 21.1094C475.227 18.6406 475.706 16.474 476.664 14.6094C477.622 12.7448 478.971 11.2917 480.711 10.25C482.461 9.20833 484.513 8.6875 486.867 8.6875C488.451 8.6875 489.924 8.94271 491.289 9.45312C492.664 9.95312 493.862 10.7083 494.883 11.7187C495.914 12.7292 496.716 14 497.289 15.5312C497.862 17.0521 498.148 18.8333 498.148 20.875V22.7031H477.883V18.5781H491.883C491.883 17.6198 491.674 16.7708 491.258 16.0313C490.841 15.2917 490.263 14.7135 489.523 14.2969C488.794 13.8698 487.945 13.6562 486.977 13.6562C485.966 13.6562 485.07 13.8906 484.289 14.3594C483.518 14.8177 482.914 15.4375 482.477 16.2187C482.039 16.9896 481.815 17.849 481.805 18.7969V22.7187C481.805 23.9062 482.023 24.9323 482.461 25.7969C482.909 26.6615 483.539 27.3281 484.352 27.7969C485.164 28.2656 486.128 28.5 487.242 28.5C487.982 28.5 488.659 28.3958 489.273 28.1875C489.888 27.9792 490.414 27.6667 490.852 27.25C491.289 26.8333 491.622 26.3229 491.852 25.7188L498.008 26.125C497.695 27.6042 497.055 28.8958 496.086 30C495.128 31.0937 493.888 31.9479 492.367 32.5625C490.857 33.1667 489.112 33.4688 487.133 33.4688ZM502.492 33V9H508.945V13.1875H509.195C509.633 11.6979 510.367 10.5729 511.398 9.8125C512.43 9.04167 513.617 8.65625 514.961 8.65625C515.294 8.65625 515.654 8.67708 516.039 8.71875C516.424 8.76042 516.763 8.81771 517.055 8.89062V14.7969C516.742 14.7031 516.31 14.6198 515.758 14.5469C515.206 14.474 514.701 14.4375 514.242 14.4375C513.263 14.4375 512.388 14.651 511.617 15.0781C510.857 15.4948 510.253 16.0781 509.805 16.8281C509.367 17.5781 509.148 18.4427 509.148 19.4219V33H502.492ZM540.465 15.8437L534.371 16.2187C534.267 15.6979 534.043 15.2292 533.699 14.8125C533.355 14.3854 532.902 14.0469 532.34 13.7969C531.788 13.5365 531.126 13.4062 530.355 13.4062C529.324 13.4062 528.454 13.625 527.746 14.0625C527.038 14.4896 526.684 15.0625 526.684 15.7812C526.684 16.3542 526.913 16.8385 527.371 17.2344C527.829 17.6302 528.616 17.9479 529.73 18.1875L534.074 19.0625C536.408 19.5417 538.147 20.3125 539.293 21.375C540.439 22.4375 541.012 23.8333 541.012 25.5625C541.012 27.1354 540.548 28.5156 539.621 29.7031C538.704 30.8906 537.444 31.8177 535.84 32.4844C534.246 33.1406 532.408 33.4688 530.324 33.4688C527.147 33.4688 524.616 32.8073 522.73 31.4844C520.855 30.151 519.757 28.3385 519.434 26.0469L525.98 25.7031C526.178 26.6719 526.658 27.4115 527.418 27.9219C528.178 28.4219 529.152 28.6719 530.34 28.6719C531.507 28.6719 532.444 28.4479 533.152 28C533.871 27.5417 534.236 26.9531 534.246 26.2344C534.236 25.6302 533.98 25.1354 533.48 24.75C532.98 24.3542 532.21 24.0521 531.168 23.8437L527.012 23.0156C524.668 22.5469 522.923 21.7344 521.777 20.5781C520.642 19.4219 520.074 17.9479 520.074 16.1562C520.074 14.6146 520.491 13.2865 521.324 12.1719C522.168 11.0573 523.35 10.1979 524.871 9.59375C526.402 8.98958 528.194 8.6875 530.246 8.6875C533.277 8.6875 535.663 9.32812 537.402 10.6094C539.152 11.8906 540.173 13.6354 540.465 15.8437ZM560.594 22.7812V9H567.25V33H560.859V28.6406H560.609C560.068 30.0469 559.167 31.1771 557.906 32.0312C556.656 32.8854 555.13 33.3125 553.328 33.3125C551.724 33.3125 550.313 32.9479 549.094 32.2188C547.875 31.4896 546.922 30.4531 546.234 29.1094C545.557 27.7656 545.214 26.1562 545.203 24.2812V9H551.859V23.0937C551.87 24.5104 552.25 25.6302 553 26.4531C553.75 27.276 554.755 27.6875 556.016 27.6875C556.818 27.6875 557.568 27.5052 558.266 27.1406C558.964 26.7656 559.526 26.2135 559.953 25.4844C560.391 24.7552 560.604 23.8542 560.594 22.7812ZM592.543 15.8437L586.449 16.2187C586.345 15.6979 586.121 15.2292 585.777 14.8125C585.434 14.3854 584.98 14.0469 584.418 13.7969C583.866 13.5365 583.204 13.4062 582.434 13.4062C581.402 13.4062 580.533 13.625 579.824 14.0625C579.116 14.4896 578.762 15.0625 578.762 15.7812C578.762 16.3542 578.991 16.8385 579.449 17.2344C579.908 17.6302 580.694 17.9479 581.809 18.1875L586.152 19.0625C588.486 19.5417 590.225 20.3125 591.371 21.375C592.517 22.4375 593.09 23.8333 593.09 25.5625C593.09 27.1354 592.626 28.5156 591.699 29.7031C590.783 30.8906 589.522 31.8177 587.918 32.4844C586.324 33.1406 584.486 33.4688 582.402 33.4688C579.225 33.4688 576.694 32.8073 574.809 31.4844C572.934 30.151 571.835 28.3385 571.512 26.0469L578.059 25.7031C578.257 26.6719 578.736 27.4115 579.496 27.9219C580.257 28.4219 581.23 28.6719 582.418 28.6719C583.585 28.6719 584.522 28.4479 585.23 28C585.949 27.5417 586.314 26.9531 586.324 26.2344C586.314 25.6302 586.059 25.1354 585.559 24.75C585.059 24.3542 584.288 24.0521 583.246 23.8437L579.09 23.0156C576.746 22.5469 575.001 21.7344 573.855 20.5781C572.72 19.4219 572.152 17.9479 572.152 16.1562C572.152 14.6146 572.569 13.2865 573.402 12.1719C574.246 11.0573 575.428 10.1979 576.949 9.59375C578.48 8.98958 580.272 8.6875 582.324 8.6875C585.355 8.6875 587.741 9.32812 589.48 10.6094C591.23 11.8906 592.251 13.6354 592.543 15.8437ZM635.824 12.2031H628.98C628.855 11.3177 628.6 10.5312 628.215 9.84375C627.829 9.14583 627.335 8.55208 626.73 8.0625C626.126 7.57292 625.428 7.19792 624.637 6.9375C623.855 6.67708 623.007 6.54688 622.09 6.54688C620.434 6.54688 618.991 6.95833 617.762 7.78125C616.533 8.59375 615.579 9.78125 614.902 11.3438C614.225 12.8958 613.887 14.7812 613.887 17C613.887 19.2812 614.225 21.1979 614.902 22.75C615.59 24.3021 616.548 25.474 617.777 26.2656C619.007 27.0573 620.428 27.4531 622.043 27.4531C622.949 27.4531 623.788 27.3333 624.559 27.0938C625.34 26.8542 626.033 26.5052 626.637 26.0469C627.241 25.5781 627.741 25.0104 628.137 24.3438C628.543 23.6771 628.824 22.9167 628.98 22.0625L635.824 22.0937C635.647 23.5625 635.204 24.9792 634.496 26.3438C633.798 27.6979 632.855 28.9115 631.668 29.9844C630.491 31.0469 629.085 31.8906 627.449 32.5156C625.824 33.1302 623.986 33.4375 621.934 33.4375C619.079 33.4375 616.527 32.7917 614.277 31.5C612.038 30.2083 610.267 28.3385 608.965 25.8906C607.673 23.4427 607.027 20.4792 607.027 17C607.027 13.5104 607.684 10.5417 608.996 8.09375C610.309 5.64583 612.09 3.78125 614.34 2.5C616.59 1.20833 619.121 0.562499 621.934 0.562499C623.788 0.562499 625.507 0.822916 627.09 1.34375C628.684 1.86458 630.095 2.625 631.324 3.625C632.553 4.61458 633.553 5.82812 634.324 7.26562C635.105 8.70312 635.605 10.349 635.824 12.2031ZM647.207 19.125V33H640.551V0.999999H647.02V13.2344H647.301C647.842 11.8177 648.717 10.7083 649.926 9.90625C651.134 9.09375 652.65 8.6875 654.473 8.6875C656.139 8.6875 657.592 9.05208 658.832 9.78125C660.082 10.5 661.051 11.5365 661.738 12.8906C662.436 14.2344 662.78 15.8437 662.77 17.7187V33H656.113V18.9062C656.124 17.4271 655.749 16.276 654.988 15.4531C654.238 14.6302 653.186 14.2187 651.832 14.2187C650.926 14.2187 650.124 14.4115 649.426 14.7969C648.738 15.1823 648.197 15.7448 647.801 16.4844C647.415 17.2135 647.217 18.0938 647.207 19.125ZM674.852 33.4531C673.32 33.4531 671.956 33.1875 670.758 32.6562C669.56 32.1146 668.612 31.3177 667.914 30.2656C667.227 29.2031 666.883 27.8802 666.883 26.2969C666.883 24.9635 667.128 23.8437 667.617 22.9375C668.107 22.0313 668.773 21.3021 669.617 20.75C670.461 20.1979 671.419 19.7812 672.492 19.5C673.576 19.2187 674.711 19.0208 675.898 18.9062C677.294 18.7604 678.419 18.625 679.273 18.5C680.128 18.3646 680.747 18.1667 681.133 17.9062C681.518 17.6458 681.711 17.2604 681.711 16.75V16.6562C681.711 15.6667 681.398 14.901 680.773 14.3594C680.159 13.8177 679.284 13.5469 678.148 13.5469C676.951 13.5469 675.997 13.8125 675.289 14.3437C674.581 14.8646 674.112 15.5208 673.883 16.3125L667.727 15.8125C668.039 14.3542 668.654 13.0937 669.57 12.0312C670.487 10.9583 671.669 10.1354 673.117 9.5625C674.576 8.97917 676.263 8.6875 678.18 8.6875C679.513 8.6875 680.789 8.84375 682.008 9.15625C683.237 9.46875 684.326 9.95312 685.273 10.6094C686.232 11.2656 686.987 12.1094 687.539 13.1406C688.091 14.1615 688.367 15.3854 688.367 16.8125V33H682.055V29.6719H681.867C681.482 30.4219 680.966 31.0833 680.32 31.6562C679.674 32.2187 678.898 32.6615 677.992 32.9844C677.086 33.2969 676.039 33.4531 674.852 33.4531ZM676.758 28.8594C677.737 28.8594 678.602 28.6667 679.352 28.2812C680.102 27.8854 680.69 27.3542 681.117 26.6875C681.544 26.0208 681.758 25.2656 681.758 24.4219V21.875C681.549 22.0104 681.263 22.1354 680.898 22.25C680.544 22.3542 680.143 22.4531 679.695 22.5469C679.247 22.6302 678.799 22.7083 678.352 22.7812C677.904 22.8437 677.497 22.901 677.133 22.9531C676.352 23.0677 675.669 23.25 675.086 23.5C674.503 23.75 674.049 24.0885 673.727 24.5156C673.404 24.9323 673.242 25.4531 673.242 26.0781C673.242 26.9844 673.57 27.6771 674.227 28.1562C674.893 28.625 675.737 28.8594 676.758 28.8594ZM704.375 33.4688C701.948 33.4688 699.849 32.9531 698.078 31.9219C696.318 30.8802 694.958 29.4323 694 27.5781C693.042 25.7135 692.563 23.5521 692.563 21.0937C692.563 18.6146 693.042 16.4479 694 14.5937C694.958 12.7292 696.318 11.2812 698.078 10.25C699.849 9.20833 701.948 8.6875 704.375 8.6875C706.802 8.6875 708.896 9.20833 710.656 10.25C712.427 11.2812 713.792 12.7292 714.75 14.5937C715.708 16.4479 716.188 18.6146 716.188 21.0937C716.188 23.5521 715.708 25.7135 714.75 27.5781C713.792 29.4323 712.427 30.8802 710.656 31.9219C708.896 32.9531 706.802 33.4688 704.375 33.4688ZM704.406 28.3125C705.51 28.3125 706.432 28 707.172 27.375C707.911 26.7396 708.469 25.875 708.844 24.7812C709.229 23.6875 709.422 22.4427 709.422 21.0469C709.422 19.651 709.229 18.4063 708.844 17.3125C708.469 16.2187 707.911 15.3542 707.172 14.7187C706.432 14.0833 705.51 13.7656 704.406 13.7656C703.292 13.7656 702.354 14.0833 701.594 14.7187C700.844 15.3542 700.276 16.2187 699.891 17.3125C699.516 18.4063 699.328 19.651 699.328 21.0469C699.328 22.4427 699.516 23.6875 699.891 24.7812C700.276 25.875 700.844 26.7396 701.594 27.375C702.354 28 703.292 28.3125 704.406 28.3125ZM740.484 15.8437L734.391 16.2187C734.286 15.6979 734.063 15.2292 733.719 14.8125C733.375 14.3854 732.922 14.0469 732.359 13.7969C731.807 13.5365 731.146 13.4062 730.375 13.4062C729.344 13.4062 728.474 13.625 727.766 14.0625C727.057 14.4896 726.703 15.0625 726.703 15.7812C726.703 16.3542 726.932 16.8385 727.391 17.2344C727.849 17.6302 728.635 17.9479 729.75 18.1875L734.094 19.0625C736.427 19.5417 738.167 20.3125 739.313 21.375C740.458 22.4375 741.031 23.8333 741.031 25.5625C741.031 27.1354 740.568 28.5156 739.641 29.7031C738.724 30.8906 737.464 31.8177 735.859 32.4844C734.266 33.1406 732.427 33.4688 730.344 33.4688C727.167 33.4688 724.635 32.8073 722.75 31.4844C720.875 30.151 719.776 28.3385 719.453 26.0469L726 25.7031C726.198 26.6719 726.677 27.4115 727.438 27.9219C728.198 28.4219 729.172 28.6719 730.359 28.6719C731.526 28.6719 732.464 28.4479 733.172 28C733.891 27.5417 734.255 26.9531 734.266 26.2344C734.255 25.6302 734 25.1354 733.5 24.75C733 24.3542 732.229 24.0521 731.188 23.8437L727.031 23.0156C724.688 22.5469 722.943 21.7344 721.797 20.5781C720.661 19.4219 720.094 17.9479 720.094 16.1562C720.094 14.6146 720.51 13.2865 721.344 12.1719C722.188 11.0573 723.37 10.1979 724.891 9.59375C726.422 8.98958 728.214 8.6875 730.266 8.6875C733.297 8.6875 735.682 9.32812 737.422 10.6094C739.172 11.8906 740.193 13.6354 740.484 15.8437Z" fill="black"/>
<path d="M12.3438 715.787C11.5833 716.006 10.9115 716.313 10.3281 716.709C9.73437 717.105 9.23438 717.589 8.82813 718.162C8.41146 718.725 8.09375 719.37 7.875 720.1C7.65625 720.818 7.54688 721.615 7.54688 722.49C7.54688 724.126 7.95312 725.563 8.76562 726.803C9.57812 728.032 10.7604 728.99 12.3125 729.678C13.8542 730.365 15.7396 730.709 17.9687 730.709C20.1979 730.709 22.0937 730.37 23.6562 729.693C25.2187 729.016 26.4115 728.058 27.2344 726.818C28.0469 725.579 28.4531 724.115 28.4531 722.428C28.4531 720.896 28.1823 719.589 27.6406 718.506C27.0885 717.412 26.3125 716.579 25.3125 716.006C24.3125 715.423 23.1302 715.131 21.7656 715.131L21.9688 713.756V722.006H16.875V708.615H20.9062C23.7187 708.615 26.1354 709.209 28.1562 710.396C30.1667 711.584 31.7187 713.219 32.8125 715.303C33.8958 717.386 34.4375 719.771 34.4375 722.459C34.4375 725.459 33.776 728.094 32.4531 730.365C31.1198 732.636 29.2292 734.407 26.7812 735.678C24.3229 736.938 21.4062 737.568 18.0312 737.568C15.4375 737.568 13.125 737.193 11.0937 736.443C9.05208 735.683 7.32292 734.62 5.90625 733.256C4.48958 731.891 3.41146 730.303 2.67187 728.49C1.93229 726.678 1.5625 724.714 1.5625 722.6C1.5625 720.787 1.82812 719.1 2.35937 717.537C2.88021 715.975 3.61979 714.589 4.57812 713.381C5.53646 712.162 6.67708 711.167 8 710.396C9.3125 709.626 10.7604 709.131 12.3438 708.912V715.787ZM34.4688 692.814C34.4688 695.242 33.9531 697.34 32.9219 699.111C31.8802 700.872 30.4323 702.231 28.5781 703.189C26.7135 704.148 24.5521 704.627 22.0937 704.627C19.6146 704.627 17.4479 704.148 15.5937 703.189C13.7292 702.231 12.2812 700.872 11.25 699.111C10.2083 697.34 9.6875 695.242 9.6875 692.814C9.6875 690.387 10.2083 688.294 11.25 686.533C12.2812 684.762 13.7292 683.398 15.5937 682.439C17.4479 681.481 19.6146 681.002 22.0937 681.002C24.5521 681.002 26.7135 681.481 28.5781 682.439C30.4323 683.398 31.8802 684.762 32.9219 686.533C33.9531 688.294 34.4688 690.387 34.4688 692.814ZM29.3125 692.783C29.3125 691.679 29 690.757 28.375 690.018C27.7396 689.278 26.875 688.721 25.7812 688.346C24.6875 687.96 23.4427 687.768 22.0469 687.768C20.651 687.768 19.4063 687.96 18.3125 688.346C17.2187 688.721 16.3542 689.278 15.7187 690.018C15.0833 690.757 14.7656 691.679 14.7656 692.783C14.7656 693.898 15.0833 694.835 15.7187 695.596C16.3542 696.346 17.2187 696.913 18.3125 697.299C19.4063 697.674 20.651 697.861 22.0469 697.861C23.4427 697.861 24.6875 697.674 25.7812 697.299C26.875 696.913 27.7396 696.346 28.375 695.596C29 694.835 29.3125 693.898 29.3125 692.783ZM34.4688 665.83C34.4688 668.257 33.9531 670.356 32.9219 672.127C31.8802 673.887 30.4323 675.247 28.5781 676.205C26.7135 677.163 24.5521 677.643 22.0937 677.643C19.6146 677.643 17.4479 677.163 15.5937 676.205C13.7292 675.247 12.2812 673.887 11.25 672.127C10.2083 670.356 9.6875 668.257 9.6875 665.83C9.6875 663.403 10.2083 661.309 11.25 659.549C12.2812 657.778 13.7292 656.413 15.5937 655.455C17.4479 654.497 19.6146 654.018 22.0937 654.018C24.5521 654.018 26.7135 654.497 28.5781 655.455C30.4323 656.413 31.8802 657.778 32.9219 659.549C33.9531 661.309 34.4688 663.403 34.4688 665.83ZM29.3125 665.799C29.3125 664.695 29 663.773 28.375 663.033C27.7396 662.294 26.875 661.736 25.7812 661.361C24.6875 660.976 23.4427 660.783 22.0469 660.783C20.651 660.783 19.4063 660.976 18.3125 661.361C17.2187 661.736 16.3542 662.294 15.7187 663.033C15.0833 663.773 14.7656 664.695 14.7656 665.799C14.7656 666.913 15.0833 667.851 15.7187 668.611C16.3542 669.361 17.2187 669.929 18.3125 670.314C19.4063 670.689 20.651 670.877 22.0469 670.877C23.4427 670.877 24.6875 670.689 25.7812 670.314C26.875 669.929 27.7396 669.361 28.375 668.611C29 667.851 29.3125 666.913 29.3125 665.799ZM34.3906 640.846C34.3906 642.669 33.9219 644.32 32.9844 645.799C32.0365 647.268 30.6458 648.434 28.8125 649.299C26.9687 650.153 24.7083 650.58 22.0312 650.58C19.2812 650.58 16.9948 650.137 15.1719 649.252C13.3385 648.367 11.9687 647.189 11.0625 645.721C10.1458 644.242 9.6875 642.622 9.6875 640.861C9.6875 639.518 9.91667 638.398 10.375 637.502C10.8229 636.596 11.3854 635.867 12.0625 635.314C12.7292 634.752 13.3854 634.325 14.0312 634.033V633.83H2V627.189H34V633.752H30.1562V634.033C30.8229 634.346 31.4844 634.788 32.1406 635.361C32.7865 635.924 33.3229 636.658 33.75 637.564C34.1771 638.46 34.3906 639.554 34.3906 640.846ZM29.0937 638.736C29.0937 637.663 28.8021 636.757 28.2187 636.018C27.625 635.268 26.7969 634.695 25.7344 634.299C24.6719 633.893 23.4271 633.689 22 633.689C20.5729 633.689 19.3333 633.887 18.2812 634.283C17.2292 634.679 16.4167 635.252 15.8437 636.002C15.2708 636.752 14.9844 637.663 14.9844 638.736C14.9844 639.83 15.2812 640.752 15.875 641.502C16.4687 642.252 17.2917 642.82 18.3437 643.205C19.3958 643.59 20.6146 643.783 22 643.783C23.3958 643.783 24.6302 643.59 25.7031 643.205C26.7656 642.809 27.599 642.242 28.2031 641.502C28.7969 640.752 29.0937 639.83 29.0937 638.736ZM10 589.158L34 597.549V605.049L10 613.439V606.408L27.1719 601.424V601.174L10 596.205V589.158ZM34.4688 575.588C34.4688 578.057 33.9688 580.182 32.9688 581.963C31.9583 583.734 30.5312 585.098 28.6875 586.057C26.8333 587.015 24.6406 587.494 22.1094 587.494C19.6406 587.494 17.474 587.015 15.6094 586.057C13.7448 585.098 12.2917 583.749 11.25 582.01C10.2083 580.26 9.6875 578.208 9.6875 575.854C9.6875 574.27 9.94271 572.796 10.4531 571.432C10.9531 570.057 11.7083 568.859 12.7187 567.838C13.7292 566.807 15 566.005 16.5312 565.432C18.0521 564.859 19.8333 564.572 21.875 564.572H23.7031V584.838H19.5781V570.838C18.6198 570.838 17.7708 571.046 17.0313 571.463C16.2917 571.88 15.7135 572.458 15.2969 573.197C14.8698 573.926 14.6562 574.775 14.6562 575.744C14.6562 576.755 14.8906 577.65 15.3594 578.432C15.8177 579.202 16.4375 579.807 17.2187 580.244C17.9896 580.682 18.849 580.906 19.7969 580.916H23.7187C24.9062 580.916 25.9323 580.697 26.7969 580.26C27.6615 579.812 28.3281 579.182 28.7969 578.369C29.2656 577.557 29.5 576.593 29.5 575.479C29.5 574.739 29.3958 574.062 29.1875 573.447C28.9792 572.833 28.6667 572.307 28.25 571.869C27.8333 571.432 27.3229 571.098 26.7188 570.869L27.125 564.713C28.6042 565.025 29.8958 565.666 31 566.635C32.0937 567.593 32.9479 568.833 33.5625 570.354C34.1667 571.864 34.4688 573.609 34.4688 575.588ZM34 560.229H10V553.775H14.1875V553.525C12.6979 553.088 11.5729 552.354 10.8125 551.322C10.0417 550.291 9.65625 549.104 9.65625 547.76C9.65625 547.426 9.67708 547.067 9.71875 546.682C9.76042 546.296 9.81771 545.958 9.89062 545.666H15.7969C15.7031 545.979 15.6198 546.411 15.5469 546.963C15.474 547.515 15.4375 548.02 15.4375 548.479C15.4375 549.458 15.651 550.333 16.0781 551.104C16.4948 551.864 17.0781 552.468 17.8281 552.916C18.5781 553.354 19.4427 553.572 20.4219 553.572H34V560.229ZM16.8437 522.256L17.2187 528.35C16.6979 528.454 16.2292 528.678 15.8125 529.021C15.3854 529.365 15.0469 529.818 14.7969 530.381C14.5365 530.933 14.4062 531.594 14.4062 532.365C14.4062 533.396 14.625 534.266 15.0625 534.975C15.4896 535.683 16.0625 536.037 16.7812 536.037C17.3542 536.037 17.8385 535.808 18.2344 535.35C18.6302 534.891 18.9479 534.105 19.1875 532.99L20.0625 528.646C20.5417 526.313 21.3125 524.574 22.375 523.428C23.4375 522.282 24.8333 521.709 26.5625 521.709C28.1354 521.709 29.5156 522.173 30.7031 523.1C31.8906 524.016 32.8177 525.277 33.4844 526.881C34.1406 528.475 34.4688 530.313 34.4688 532.396C34.4688 535.574 33.8073 538.105 32.4844 539.99C31.151 541.865 29.3385 542.964 27.0469 543.287L26.7031 536.74C27.6719 536.542 28.4115 536.063 28.9219 535.303C29.4219 534.542 29.6719 533.568 29.6719 532.381C29.6719 531.214 29.4479 530.277 29 529.568C28.5417 528.85 27.9531 528.485 27.2344 528.475C26.6302 528.485 26.1354 528.74 25.75 529.24C25.3542 529.74 25.0521 530.511 24.8437 531.553L24.0156 535.709C23.5469 538.053 22.7344 539.798 21.5781 540.943C20.4219 542.079 18.9479 542.646 17.1562 542.646C15.6146 542.646 14.2865 542.23 13.1719 541.396C12.0573 540.553 11.1979 539.37 10.5937 537.85C9.98958 536.318 9.6875 534.527 9.6875 532.475C9.6875 529.443 10.3281 527.058 11.6094 525.318C12.8906 523.568 14.6354 522.548 16.8437 522.256ZM23.7812 502.127H10V495.471H34V501.861H29.6406V502.111C31.0469 502.653 32.1771 503.554 33.0312 504.814C33.8854 506.064 34.3125 507.59 34.3125 509.393C34.3125 510.997 33.9479 512.408 33.2188 513.627C32.4896 514.846 31.4531 515.799 30.1094 516.486C28.7656 517.163 27.1562 517.507 25.2812 517.518H10V510.861H24.0937C25.5104 510.851 26.6302 510.471 27.4531 509.721C28.276 508.971 28.6875 507.965 28.6875 506.705C28.6875 505.903 28.5052 505.153 28.1406 504.455C27.7656 503.757 27.2135 503.195 26.4844 502.768C25.7552 502.33 24.8542 502.117 23.7812 502.127ZM16.8437 470.178L17.2187 476.271C16.6979 476.376 16.2292 476.6 15.8125 476.943C15.3854 477.287 15.0469 477.74 14.7969 478.303C14.5365 478.855 14.4062 479.516 14.4062 480.287C14.4062 481.318 14.625 482.188 15.0625 482.896C15.4896 483.605 16.0625 483.959 16.7812 483.959C17.3542 483.959 17.8385 483.73 18.2344 483.271C18.6302 482.813 18.9479 482.027 19.1875 480.912L20.0625 476.568C20.5417 474.235 21.3125 472.495 22.375 471.35C23.4375 470.204 24.8333 469.631 26.5625 469.631C28.1354 469.631 29.5156 470.094 30.7031 471.021C31.8906 471.938 32.8177 473.199 33.4844 474.803C34.1406 476.396 34.4688 478.235 34.4688 480.318C34.4688 483.495 33.8073 486.027 32.4844 487.912C31.151 489.787 29.3385 490.886 27.0469 491.209L26.7031 484.662C27.6719 484.464 28.4115 483.985 28.9219 483.225C29.4219 482.464 29.6719 481.49 29.6719 480.303C29.6719 479.136 29.4479 478.199 29 477.49C28.5417 476.771 27.9531 476.407 27.2344 476.396C26.6302 476.407 26.1354 476.662 25.75 477.162C25.3542 477.662 25.0521 478.433 24.8437 479.475L24.0156 483.631C23.5469 485.975 22.7344 487.719 21.5781 488.865C20.4219 490.001 18.9479 490.568 17.1562 490.568C15.6146 490.568 14.2865 490.152 13.1719 489.318C12.0573 488.475 11.1979 487.292 10.5937 485.771C9.98958 484.24 9.6875 482.449 9.6875 480.396C9.6875 477.365 10.3281 474.98 11.6094 473.24C12.8906 471.49 14.6354 470.469 16.8437 470.178ZM34 455.131H2V433.568H7.57812V448.365H15.2031V434.678H20.7812V448.365H28.4219V433.506H34V455.131ZM10 405.939L34 414.33V421.83L10 430.221V423.189L27.1719 418.205V417.955L10 412.986V405.939ZM34 402.533H10V395.877H34V402.533ZM6.90625 399.189C6.90625 400.179 6.57812 401.028 5.92187 401.736C5.25521 402.434 4.45833 402.783 3.53125 402.783C2.61458 402.783 1.82812 402.434 1.17188 401.736C0.505207 401.028 0.171873 400.179 0.171873 399.189C0.171873 398.2 0.505207 397.356 1.17188 396.658C1.82812 395.95 2.61458 395.596 3.53125 395.596C4.45833 395.596 5.25521 395.95 5.92187 396.658C6.57812 397.356 6.90625 398.2 6.90625 399.189ZM2 383.889H34V390.545H2V383.889Z" fill="purple"/>
<defs>
<linearGradient id="paint0_linear_0_1" x1="50.5" y1="100" x2="50.5" y2="1000" gradientUnits="userSpaceOnUse">
<stop stop-color="#42C60D"/>
<stop offset="1" stop-color="#D60909"/>
</linearGradient>
<linearGradient id="paint1_linear_0_1" x1="101" y1="50.5" x2="1001" y2="50.5" gradientUnits="userSpaceOnUse">
<stop stop-color="#42C60D"/>
<stop offset="1" stop-color="#D60909"/>
</linearGradient>
</defs>
</svg>
